<?xml version="1.0" encoding="utf-8"?>
<svg xmlns="http://www.w3.org/2000/svg" data-name="Layer 1" id="Layer_1" version="1.1" viewBox="0 0 635.5 528">
  <defs>
    <style>
      .cls-1 {
        fill: #231f20;
        stroke-width: 0px;
      }
    </style>
  </defs>
  <path class="cls-1" d="M144.4,519.1c-16,0-27.4-12.1-27.4-27.7,0-15.7,11.4-27.7,27.4-27.7,16.1,0,27.5,12,27.5,27.7,0,15.6-11.4,27.7-27.5,27.7M144.5,454.7c-23.3,0-38.5,16.8-38.5,36.6,0,19.4,14.8,36.7,38.3,36.7,24.3,0,38.9-17.4,38.9-36.6,0-19.9-15-36.7-38.6-36.7M44.3,516.4c-3.8,1.5-8.5,2.2-14.2,2.2h-14.9v-54.3h14.4c5.9,0,10.8.3,14.8,1.7,11.7,4.1,16,13.9,16,25.4s-2.4,19.8-16.1,25M44.3,456.7c-3.7-.8-8.8-1.1-13-1.1H.4c-.2,0-.3,0-.3.2,0,.2,0,.3.1.4.3.2.6.3.8.4,2,.7,3.2,2,3.6,3.9.2,1,.3,2.1.3,3.1v55.4c0,1-.2,2.1-.4,3.1-.4,1.9-1.6,3.1-3.6,3.9-.3.1-.6.2-.8.4-.1,0-.2.2-.1.4,0,.2.2.3.5.3h30.9c4.7,0,9-.3,12.9-1.3,18-4.6,27-19.4,27-34.5,0-15-7.4-30.5-26.9-34.6M234.3,518.6v-63s-14.6,0-14.6,0c-.3,0-.5.1-.5.3,0,.1,0,.3.1.4.3.2.5.3.8.4,2,.7,3.1,2,3.6,3.9.3,1,.3,2,.3,3.3v55.1c0,1.2-.1,2.3-.4,3.3-.5,1.9-1.6,3.2-3.5,3.9-.3.1-.7.3-.9.4-.1,0-.2.3-.1.4,0,.1.2.2.5.2h51.7s0-8.4,0-8.4h-37M343.6,486.2c-2,.8-4.8.9-8,.9h-17.6v-22.7s18.1,0,18.1,0c3.1,0,5.7.2,7.5,1,4.9,2,6.1,6.5,6.1,10.4,0,5-2.1,8.8-6.1,10.4M345.9,456.5c-2.5-.7-6.2-.9-9.4-.9h-33.2c-.3,0-.5,0-.5.2,0,.1,0,.3.1.4.3.2.6.2.9.3,2,.7,3.2,2.1,3.6,4,.2,1.1.3,2.1.3,3.3v55.1c0,1.1,0,2.2-.4,3.3-.5,1.9-1.5,3.2-3.6,3.9-.3.1-.6.2-.8.4-.1.1-.2.3-.1.4,0,.1.2.2.5.2h14.7s0-31.1,0-31.1h17.1c3.7,0,7.9-.2,10.6-1,9.6-2.7,14.5-10.2,14.5-19,0-9-4.6-16.7-14.4-19.4M446.5,455.6c-.5,0-.7,0-.8.3,0,.1,0,.3.1.4.3.2.6.3.8.4,2,.7,3.2,2,3.6,3.9.2,1.1.3,2.2.4,3.3v23.3s-40.2,0-40.2,0v-31.5s-14.4,0-14.4,0c-.5,0-.7.1-.8.3,0,.1,0,.3.2.4.3.2.5.3.8.4,1.9.7,3.1,2,3.5,3.9.2,1.1.3,2.2.3,3.3,0,0,0,54,0,55.1,0,1.1-.1,2.2-.3,3.3-.4,1.9-1.6,3.2-3.6,3.9-.3.1-.6.2-.8.4-.1,0-.2.3-.1.4,0,.1.3.2.6.2h14.6v-31.1s40.2,0,40.2,0v22.9c0,1.2,0,2.3-.4,3.3-.5,1.8-1.6,3.1-3.6,3.9-.3.1-.6.2-.8.4-.1,0-.2.3-.1.4,0,.1.3.2.6.2h14.6v-71.4s-14.4,0-14.4,0M505.5,455.6c-.3,0-.5.1-.5.3,0,.1,0,.3.1.4.3.2.5.3.8.4,2,.7,3.1,2,3.6,3.9.2,1.2.3,2.2.3,3.3s0,55.1,0,55.1c0,1.2,0,2.1-.4,3.3-.5,1.9-1.6,3.3-3.6,3.9-.3.1-.7.2-.9.3-.1,0-.2.2-.1.4,0,.1.3.3.6.3h14.6v-71.4s-14.6,0-14.6,0M621.3,455.6c-.2,0-.3.1-.3.3,0,.1,0,.3.1.4.3.2.5.2.9.3,2,.7,3.1,2.1,3.5,3.9.3,1,.3,2,.4,3.3v46.1s-47.4-54.3-47.4-54.3h-13.6c-.5,0-.7.2-.7.3,0,.1,0,.3.1.4.3.2.6.3.8.4,2,.7,3.2,2,3.6,3.9.2,1.1.3,2.1.3,3.3v55.1c0,1.2-.1,2.2-.4,3.3-.4,1.9-1.6,3.1-3.6,3.9-.2,0-.6.2-.8.4-.1,0-.2.3-.1.4,0,.1.2.2.6.2h14s0-55.5,0-55.5l48,55.5h8.9v-71.4s-14.2,0-14.2,0M546.9,174.8c-1.6-6.3-4.7-13.1-7.8-19.1-2.4-4.6-16.2-28.7-42.4-47.8,0,0-5.4-11-8.6-16.3-25.3-42.1-65-70.7-107.2-84.7-21.8-7.2-40.9-8.5-48.7-5.2-6.5,2.7-7.4,7.4-7.4,7.4,0,0-5.6-1.2-12.5-2-10.2-1.1-17.2-.5-18.4,2.3-1,2.5,1.3,3.1,4.5,4.3,0,0,7.2,2.7,7.3,2.7,41.7,17.4,79.1,46,100.5,76.6-2.1,5.4-4.5,14.5-5.6,22.6-2.1,15.7.8,27.5,4.8,28.1,2.5.4,3.6-2.3,8.2-6.9,4.6-4.5,8.5-6.8,11.6-7.4,5.9,15.2,10.9,34.5,11.3,57.9,1.4,87.3-55.4,157.1-129.3,185.9-1.9.7-5.6,2.2-8,3-2.5.8-4.8,1.5-5.1,3.2-.3,2.1,3.6,2,5.5,2,1.3,0,4.7-.2,6-.2,118.3-.6,207.4-67.7,206.7-201.6,0-1.7-.1-6.8-.2-8.4,0,0,5.5-.8,13.3,1,11.7,2.8,16,8.4,18.3,8.2,3-.2,3.5-3.3,2.9-5.8M245.1,0v380.2h-90.8c-1,0-1.8-.4-2-1-.2-.6.1-1.2.6-1.6.7-.6,2.2-1.2,3.5-1.6,8.1-2.8,12.7-8,14.8-16,1-3.7,1.5-6.7,1.5-13.4V33c0-4.2-.4-8.7-1.5-12.6-2.1-7.6-6.3-12.5-14.5-16-1.2-.5-2.4-.8-3.5-1.6-.5-.4-.7-1-.5-1.6.2-.6.8-1.3,2.1-1.3h90.4Z"/>
</svg>