<?xml version="1.0" encoding="utf-8"?>
<svg xmlns="http://www.w3.org/2000/svg" data-name="Layer 1" id="Layer_1" viewBox="0 0 713.65 269.56">
  <defs>
    <style>
      .cls-1 {
        fill: #a7a9ac;
        stroke-width: 0px;
      }
    </style>
  </defs>
  <path class="cls-1" d="M135.78,0h-35.7v66c-12.11,0-24.79-.03-32.25-.03C30.36,65.97,0,96.32,0,133.74s30.36,67.83,67.83,67.83,67.95-30.38,67.95-67.83c0-18.72.03-67.84.03-67.84l-.03-65.9ZM100.03,133.77c0,17.81-14.41,32.26-32.25,32.26s-32.26-14.45-32.26-32.26,14.45-32.25,32.26-32.25h32.25s0,32.25,0,32.25Z"/>
  <path class="cls-1" d="M428.35,133.74c0-37.42,30.34-67.75,67.79-67.75s67.79,30.33,67.79,67.75-30.36,67.78-67.79,67.78-67.79-30.34-67.79-67.78ZM496,166.1c17.88,0,32.38-14.5,32.38-32.36s-14.5-32.36-32.38-32.36-32.37,14.5-32.37,32.36,14.48,32.36,32.37,32.36Z"/>
  <path class="cls-1" d="M677.89,133.81c0-17.68-14.3-32-32-32s-32.04,14.32-32.04,32v64.99h-35.73v-64.99c0-37.41,30.32-67.74,67.77-67.74s67.73,30.33,67.73,67.74c0,19.11.02,64.94.02,64.94h-35.77s.02-56.04.02-64.94Z"/>
  <path class="cls-1" d="M344.92,110.19c-5.2-3.36-3.5-9.64,4.87-11.93,11.09-3.04,29.31-.58,45.71,6.64l16.85-23.03c-7.31-6.12-23.04-13.94-46.39-15.46,0,0-38.99-4.82-54.77,24.78,0,0-13.94,27.65,13.61,44.85,16.73,10.46,45.86,14.19,54.68,19.15,7.54,4.27,5.07,12.26-6.12,14.74-18.48,4.18-43.31-6.37-51.61-12.56l-17.06,23.5c11.42,8.83,26.16,16.35,49.42,20.21,0,0,36.64,6.31,56.86-18.88,3.71-4.66,20.28-35.75-13.06-53.49-16.48-8.8-44.17-12.78-52.99-18.53Z"/>
  <path class="cls-1" d="M178.4,225.21c1.44.9,18.15,12.31,34.29,12.65,38.76.83,41.28-39.54,41.28-49.1-7.49,7.83-22.64,12.75-32.03,12.75-37.46,0-67.46-29.31-67.46-66.76,0-18.54,0-66.18,0-66.18,0,0,17.41.03,35.67.06,0,0,.06,58.03.06,66.12,0,17.68,14.31,31.98,32,31.98s31.98-14.3,31.98-31.98c0-7.25.03-66.12.03-66.12,18.26-.03,35.78-.06,35.78-.06l-.02,66.18c0,58.63,2.87,118.86-54.23,132.47-43.05,10.29-73.48-16.67-74.97-17.91l17.62-24.1Z"/>
</svg>