<?xml version="1.0" encoding="UTF-8"?><svg id="a" xmlns="http://www.w3.org/2000/svg" viewBox="0 0 214 55"><path d="M210.77,36.22c-1.34,0-2.42-1.08-2.42-2.42V13.22c0-1.34,1.08-2.42,2.42-2.42s2.42,1.08,2.42,2.42v20.58c0,1.34-1.08,2.42-2.42,2.42Z" fill="#1d1d1b"/><path d="M94.13,36.22h-22.3c-1.34,0-2.42-1.08-2.42-2.42s1.08-2.42,2.42-2.42h22.3c1.5,0,2.73-1.22,2.73-2.73s-1.22-2.73-2.73-2.73h-17.15c-4.17,0-7.57-3.39-7.57-7.57s3.39-7.57,7.57-7.57h22.3c1.34,0,2.42,1.08,2.42,2.42s-1.08,2.42-2.42,2.42h-22.3c-1.5,0-2.73,1.22-2.73,2.73s1.22,2.73,2.73,2.73h17.15c4.17,0,7.57,3.39,7.57,7.57s-3.39,7.57-7.57,7.57Z" fill="#1d1d1b"/><path d="M193.62,36.22h-17.15c-7.01,0-12.71-5.7-12.71-12.71s5.7-12.71,12.71-12.71h17.15c1.34,0,2.42,1.08,2.42,2.42s-1.08,2.42-2.42,2.42h-17.15c-4.34,0-7.87,3.53-7.87,7.87s3.53,7.87,7.87,7.87h17.15c1.34,0,2.42,1.08,2.42,2.42s-1.08,2.42-2.42,2.42Z" fill="#1d1d1b"/><path d="M149.02,36.22c-.76,0-1.51-.36-1.98-1.03l-13.49-19.13c-.26-.37-.63-.43-.82-.43h0c-.2,0-.56.06-.82.43l-13.49,19.13c-.77,1.09-2.28,1.35-3.37.58-1.09-.77-1.35-2.28-.58-3.37l13.49-19.13c1.1-1.55,2.88-2.48,4.78-2.48h0c1.9,0,3.68.93,4.78,2.48l13.49,19.13c.77,1.09.51,2.6-.58,3.37-.42.3-.91.44-1.39.44Z" fill="#1d1d1b"/><path d="M69.85,54.45c-.13,0-.23-.03-.31-.09-.08-.06-.12-.14-.14-.23s0-.21.06-.33l2.62-5.89c.06-.15.15-.26.25-.33.1-.06.21-.1.33-.1.12,0,.22.03.32.1.1.07.18.17.25.33l2.62,5.89c.06.12.08.23.07.33-.01.1-.05.18-.13.23-.07.05-.17.08-.3.08-.14,0-.25-.04-.34-.11-.08-.07-.16-.18-.22-.33l-.68-1.57.46.27h-4.12l.44-.27-.67,1.57c-.07.16-.14.27-.21.33-.08.07-.18.1-.31.1ZM72.65,48.67l-1.46,3.47-.24-.23h3.42l-.22.23-1.47-3.47h-.02Z" fill="#575756"/><path d="M81.49,54.47c-.69,0-1.28-.14-1.77-.43-.49-.28-.87-.69-1.13-1.22-.26-.53-.39-1.15-.39-1.86,0-.54.07-1.02.22-1.45.15-.43.36-.8.64-1.1.28-.31.63-.54,1.04-.7.41-.16.87-.24,1.39-.24.38,0,.75.05,1.1.15.35.1.66.25.92.45.11.07.18.16.22.26s.04.2.02.29-.07.17-.13.23-.15.1-.25.1-.21-.03-.32-.11c-.21-.16-.45-.28-.71-.36s-.53-.12-.81-.12c-.49,0-.9.1-1.24.3s-.59.5-.77.89c-.17.39-.26.86-.26,1.41s.09,1.03.26,1.42c.17.39.43.69.77.89s.75.3,1.24.3c.28,0,.56-.04.82-.12.26-.08.51-.2.74-.36.12-.07.22-.1.31-.1s.17.04.24.1c.06.06.11.13.13.22.02.09.02.18-.01.27-.03.09-.09.17-.19.24-.26.21-.58.37-.94.48-.36.11-.74.16-1.13.16Z" fill="#575756"/><path d="M87.06,54.38c-.17,0-.31-.05-.4-.14-.09-.09-.14-.23-.14-.4v-5.74c0-.17.05-.31.14-.4s.23-.14.4-.14h3.53c.14,0,.24.03.31.1.07.07.11.17.11.3,0,.14-.04.24-.11.31-.07.07-.17.11-.31.11h-3.11v2.14h2.9c.14,0,.25.04.31.11s.1.17.1.3-.03.24-.1.3c-.07.07-.17.1-.31.1h-2.9v2.25h3.11c.14,0,.24.04.31.11.07.07.11.17.11.3,0,.14-.04.24-.11.3-.07.07-.17.1-.31.1h-3.53Z" fill="#575756"/><path d="M94.28,54.45c-.16,0-.29-.05-.37-.14-.09-.09-.13-.22-.13-.38v-5.87c0-.17.05-.3.14-.38.09-.09.22-.13.38-.13h2.31c.74,0,1.3.17,1.7.52s.6.84.6,1.48c0,.41-.09.77-.27,1.06-.18.3-.44.52-.79.68s-.76.23-1.24.23l.09-.14h.25c.26,0,.48.06.67.19.19.13.36.34.52.62l.83,1.55c.06.12.1.23.09.33,0,.11-.04.19-.12.26-.07.06-.18.1-.31.1-.14,0-.26-.03-.34-.09-.09-.06-.17-.15-.24-.28l-1.02-1.88c-.14-.25-.29-.42-.47-.51-.17-.09-.4-.13-.69-.13h-1.09v2.37c0,.16-.04.29-.13.38s-.21.14-.38.14ZM94.78,50.81h1.66c.49,0,.86-.1,1.11-.31.25-.21.38-.51.38-.92s-.13-.7-.38-.91c-.25-.21-.62-.31-1.11-.31h-1.66v2.45Z" fill="#575756"/><path d="M104.89,54.47c-.69,0-1.28-.14-1.77-.43-.49-.28-.87-.69-1.13-1.22-.26-.53-.39-1.15-.39-1.86,0-.54.07-1.02.22-1.45.15-.43.36-.8.64-1.1.28-.31.63-.54,1.04-.7.41-.16.87-.24,1.39-.24.38,0,.75.05,1.1.15.35.1.66.25.92.45.11.07.18.16.22.26s.04.2.02.29-.07.17-.13.23-.15.1-.25.1-.21-.03-.32-.11c-.21-.16-.45-.28-.71-.36s-.53-.12-.81-.12c-.49,0-.9.1-1.24.3s-.59.5-.77.89c-.17.39-.26.86-.26,1.41s.09,1.03.26,1.42c.17.39.43.69.77.89s.75.3,1.24.3c.28,0,.56-.04.82-.12.26-.08.51-.2.74-.36.12-.07.22-.1.31-.1s.17.04.24.1c.06.06.11.13.13.22.02.09.02.18-.01.27-.03.09-.09.17-.19.24-.26.21-.58.37-.94.48-.36.11-.74.16-1.13.16Z" fill="#575756"/><path d="M109.73,54.45c-.13,0-.23-.03-.31-.09-.08-.06-.12-.14-.14-.23s0-.21.06-.33l2.62-5.89c.06-.15.15-.26.25-.33.1-.06.21-.1.33-.1.12,0,.22.03.32.1.1.07.18.17.25.33l2.62,5.89c.06.12.08.23.07.33-.01.1-.05.18-.13.23-.07.05-.17.08-.3.08-.14,0-.25-.04-.34-.11-.08-.07-.16-.18-.22-.33l-.68-1.57.46.27h-4.12l.44-.27-.67,1.57c-.07.16-.14.27-.21.33-.08.07-.18.1-.31.1ZM112.53,48.67l-1.46,3.47-.24-.23h3.42l-.22.23-1.47-3.47h-.02Z" fill="#575756"/><path d="M118.92,54.45c-.15,0-.26-.04-.35-.13s-.13-.2-.13-.36v-5.97c0-.16.04-.29.12-.37.08-.09.19-.13.32-.13.12,0,.21.02.27.06.06.04.13.12.22.23l3.99,5.26h-.24v-5.07c0-.15.04-.26.12-.35.08-.08.2-.13.34-.13s.27.04.35.13.12.2.12.35v6.01c0,.15-.04.26-.11.35-.07.08-.17.13-.29.13s-.21-.02-.29-.07c-.07-.04-.15-.12-.24-.23l-3.97-5.25h.22v5.06c0,.16-.04.27-.12.36s-.19.13-.34.13Z" fill="#575756"/><path d="M127.73,54.38c-.17,0-.31-.05-.4-.14-.09-.09-.14-.23-.14-.4v-5.74c0-.17.05-.31.14-.4s.23-.14.4-.14h1.87c1.12,0,1.99.29,2.6.88.61.58.91,1.43.91,2.53,0,.55-.08,1.04-.23,1.46-.15.43-.38.78-.68,1.07s-.67.51-1.1.66c-.43.15-.93.23-1.5.23h-1.87ZM128.19,53.54h1.35c.43,0,.8-.05,1.11-.16.31-.11.58-.27.79-.48.21-.21.37-.48.47-.8.1-.32.15-.7.15-1.13,0-.86-.21-1.5-.63-1.93-.42-.43-1.05-.64-1.89-.64h-1.35v5.14Z" fill="#575756"/><path d="M138.97,54.47c-.65,0-1.21-.14-1.69-.43-.48-.29-.85-.69-1.11-1.22-.26-.53-.39-1.14-.39-1.85,0-.54.07-1.02.22-1.45.15-.43.36-.8.64-1.1.28-.31.61-.54,1.01-.7.39-.16.84-.24,1.33-.24.65,0,1.22.14,1.69.43.48.28.85.69,1.11,1.21.26.52.39,1.14.39,1.85,0,.54-.07,1.02-.22,1.45-.15.43-.36.8-.64,1.11s-.62.55-1.01.71-.83.24-1.32.24ZM138.97,53.6c.45,0,.84-.1,1.16-.31.32-.21.56-.51.74-.9s.26-.87.26-1.42c0-.83-.19-1.48-.56-1.94-.37-.46-.9-.69-1.59-.69-.45,0-.84.1-1.16.3-.32.2-.56.5-.74.9-.17.39-.26.87-.26,1.42,0,.83.19,1.47.57,1.94.38.47.91.7,1.58.7Z" fill="#575756"/><path d="M149.71,54.38c-.17,0-.31-.05-.4-.14-.09-.09-.14-.23-.14-.4v-5.74c0-.17.05-.31.14-.4s.23-.14.4-.14h3.53c.14,0,.24.03.31.1.07.07.11.17.11.3,0,.14-.04.24-.11.31-.07.07-.17.11-.31.11h-3.11v2.14h2.9c.14,0,.25.04.31.11s.1.17.1.3-.03.24-.1.3c-.07.07-.17.1-.31.1h-2.9v2.25h3.11c.14,0,.24.04.31.11.07.07.11.17.11.3,0,.14-.04.24-.11.3-.07.07-.17.1-.31.1h-3.53Z" fill="#575756"/><path d="M156.93,54.38c-.16,0-.29-.04-.38-.14s-.14-.22-.14-.38v-5.84c0-.17.04-.3.13-.38.09-.09.21-.13.37-.13s.29.04.37.13c.09.09.13.21.13.38v5.49h3c.14,0,.25.04.33.11.08.07.12.18.12.31s-.04.24-.12.32c-.08.08-.19.12-.33.12h-3.49Z" fill="#575756"/><path d="M167.95,54.45c-.17,0-.3-.05-.39-.14s-.14-.22-.14-.4v-5.82c0-.17.05-.31.14-.4s.23-.14.4-.14h3.45c.14,0,.25.03.31.1.07.07.1.17.1.3,0,.14-.03.24-.1.31-.07.07-.17.11-.31.11h-2.98v2.18h2.79c.13,0,.23.03.3.1s.11.17.11.3-.04.24-.11.31-.18.11-.3.11h-2.79v2.56c0,.35-.16.53-.47.53Z" fill="#575756"/><path d="M177.09,54.47c-.46,0-.86-.06-1.21-.18s-.64-.3-.88-.54-.41-.54-.54-.89c-.12-.36-.18-.77-.18-1.23v-3.64c0-.17.04-.29.13-.38.09-.08.21-.13.37-.13s.29.04.37.13c.09.08.13.21.13.38v3.62c0,.66.15,1.16.46,1.49.31.33.75.49,1.34.49s1.04-.16,1.35-.49c.3-.33.46-.83.46-1.49v-3.62c0-.17.04-.29.13-.38.09-.08.21-.13.36-.13s.28.04.37.13c.08.08.13.21.13.38v3.64c0,.62-.11,1.14-.31,1.56s-.52.74-.93.95c-.41.21-.93.32-1.54.32Z" fill="#575756"/><path d="M185.14,54.45c-.16,0-.29-.05-.37-.14-.09-.09-.13-.22-.13-.38v-5.54h-2.05c-.14,0-.24-.04-.32-.11-.08-.07-.12-.18-.12-.31s.04-.24.12-.31c.08-.07.18-.11.32-.11h5.1c.14,0,.25.04.33.11.08.07.12.17.12.31s-.04.24-.12.31c-.08.07-.19.11-.33.11h-2.05v5.54c0,.16-.04.29-.12.38-.08.09-.21.14-.37.14Z" fill="#575756"/><path d="M193.2,54.47c-.46,0-.86-.06-1.21-.18s-.64-.3-.88-.54-.41-.54-.54-.89c-.12-.36-.18-.77-.18-1.23v-3.64c0-.17.04-.29.13-.38.09-.08.21-.13.37-.13s.29.04.37.13c.09.08.13.21.13.38v3.62c0,.66.15,1.16.46,1.49.31.33.75.49,1.34.49s1.04-.16,1.35-.49c.3-.33.46-.83.46-1.49v-3.62c0-.17.04-.29.13-.38.09-.08.21-.13.36-.13s.28.04.37.13c.08.08.13.21.13.38v3.64c0,.62-.11,1.14-.31,1.56s-.52.74-.93.95c-.41.21-.93.32-1.54.32Z" fill="#575756"/><path d="M199.59,54.45c-.16,0-.29-.05-.37-.14-.09-.09-.13-.22-.13-.38v-5.87c0-.17.05-.3.14-.38.09-.09.22-.13.38-.13h2.31c.74,0,1.3.17,1.7.52s.6.84.6,1.48c0,.41-.09.77-.27,1.06-.18.3-.44.52-.79.68s-.76.23-1.24.23l.09-.14h.25c.26,0,.48.06.67.19.19.13.36.34.52.62l.83,1.55c.06.12.1.23.09.33,0,.11-.04.19-.12.26-.07.06-.18.1-.31.1-.14,0-.26-.03-.34-.09-.09-.06-.17-.15-.24-.28l-1.02-1.88c-.14-.25-.29-.42-.47-.51-.17-.09-.4-.13-.69-.13h-1.09v2.37c0,.16-.04.29-.13.38s-.21.14-.38.14ZM200.09,50.81h1.66c.49,0,.86-.1,1.11-.31.25-.21.38-.51.38-.92s-.13-.7-.38-.91c-.25-.21-.62-.31-1.11-.31h-1.66v2.45Z" fill="#575756"/><path d="M210.1,54.47c-.65,0-1.21-.14-1.69-.43-.48-.29-.85-.69-1.11-1.22-.26-.53-.39-1.14-.39-1.85,0-.54.07-1.02.22-1.45.15-.43.36-.8.64-1.1.28-.31.61-.54,1.01-.7.39-.16.84-.24,1.33-.24.65,0,1.22.14,1.69.43.48.28.85.69,1.11,1.21.26.52.39,1.14.39,1.85,0,.54-.07,1.02-.22,1.45-.15.43-.36.8-.64,1.11s-.62.55-1.01.71-.83.24-1.32.24ZM210.1,53.6c.45,0,.84-.1,1.16-.31.32-.21.56-.51.74-.9s.26-.87.26-1.42c0-.83-.19-1.48-.56-1.94-.37-.46-.9-.69-1.59-.69-.45,0-.84.1-1.16.3-.32.2-.56.5-.74.9-.17.39-.26.87-.26,1.42,0,.83.19,1.47.57,1.94.38.47.91.7,1.58.7Z" fill="#575756"/><path d="M27.7,54.5C12.81,54.5.7,42.39.7,27.5S12.81.5,27.7.5s27,12.11,27,27c0,2.35-.3,4.67-.9,6.92-.34,1.29-1.67,2.06-2.96,1.72-1.29-.34-2.06-1.67-1.72-2.96.49-1.84.73-3.75.73-5.68,0-12.22-9.94-22.16-22.16-22.16S5.54,15.28,5.54,27.5s9.94,22.16,22.16,22.16c3.6,0,7.17-.88,10.34-2.55,1.18-.62,2.65-.17,3.27,1.01.62,1.18.17,2.65-1.01,3.27-3.85,2.04-8.21,3.11-12.6,3.11Z" fill="#c42118"/></svg>