<?xml version="1.0" encoding="UTF-8"?>
<svg id="Layer_1" data-name="Layer 1" xmlns="http://www.w3.org/2000/svg" xmlns:xlink="http://www.w3.org/1999/xlink" viewBox="0 0 1080 1080">
  <defs>
    <style>
      .cls-1 {
        fill: #05213d;
      }

      .cls-2 {
        fill: #dae250;
      }

      .cls-3 {
        fill: none;
      }

      .cls-4 {
        clip-path: url(#clippath);
      }
    </style>
    <clipPath id="clippath">
      <rect class="cls-3" x="0" width="1080" height="1080.45"/>
    </clipPath>
  </defs>
  <g class="cls-4">
    <g>
      <g id="_Grid_Repeat_" data-name="&amp;lt;Grid Repeat&amp;gt;">
        <g>
          <path class="cls-1" d="M39.41,41.33h0c0,1.29,1.04,2.33,2.33,2.33h23.65c1.29,0,2.33,1.04,2.33,2.33v22.72c0,1.29-1.04,2.33-2.33,2.33h-29.19c-1.29,0-2.33-1.04-2.33-2.33v-22.72c0-1.29-1.04-2.33-2.33-2.33h0c-1.29,0-2.33,1.04-2.33,2.33v22.72c0,1.29-1.04,2.33-2.33,2.33H2.33C1.04,71.04,0,70,0,68.71V2.33C0,1.04,1.04,0,2.33,0h53.75l11.64,11.64v25.03c0,1.29-1.04,2.33-2.33,2.33h-23.65c-1.29,0-2.33,1.04-2.33,2.33Z"/>
          <path class="cls-1" d="M100.7,103.65h0c0-1.29-1.04-2.33-2.33-2.33h-23.65c-1.29,0-2.33-1.04-2.33-2.33v-22.72c0-1.29,1.04-2.33,2.33-2.33h29.19c1.29,0,2.33,1.04,2.33,2.33v22.72c0,1.29,1.04,2.33,2.33,2.33h0c1.29,0,2.33-1.04,2.33-2.33v-22.72c0-1.29,1.04-2.33,2.33-2.33h24.54c1.29,0,2.33,1.04,2.33,2.33v66.38c0,1.29-1.04,2.33-2.33,2.33h-53.75c-4.55-4.55-7.09-7.09-11.64-11.64v-25.03c0-1.29,1.04-2.33,2.33-2.33h23.65c1.29,0,2.33-1.04,2.33-2.33Z"/>
          <rect class="cls-2" x="96.39" y="25.66" width="19.72" height="19.72" transform="translate(6 85.53) rotate(-45)"/>
          <rect class="cls-2" x="24" y="99.6" width="19.72" height="19.72" transform="translate(-67.48 56) rotate(-45)"/>
        </g>
      </g>
      <g id="_Grid_Repeat_-2" data-name="&amp;lt;Grid Repeat&amp;gt;">
        <g>
          <path class="cls-1" d="M184.07,41.33h0c0,1.29,1.04,2.33,2.33,2.33h23.65c1.29,0,2.33,1.04,2.33,2.33v22.72c0,1.29-1.04,2.33-2.33,2.33h-29.19c-1.29,0-2.33-1.04-2.33-2.33v-22.72c0-1.29-1.04-2.33-2.33-2.33h0c-1.29,0-2.33,1.04-2.33,2.33v22.72c0,1.29-1.04,2.33-2.33,2.33h-24.54c-1.29,0-2.33-1.04-2.33-2.33V2.33C144.66,1.04,145.71,0,146.99,0h53.75l11.64,11.64v25.03c0,1.29-1.04,2.33-2.33,2.33h-23.65c-1.29,0-2.33,1.04-2.33,2.33Z"/>
          <path class="cls-1" d="M245.36,103.65h0c0-1.29-1.04-2.33-2.33-2.33h-23.65c-1.29,0-2.33-1.04-2.33-2.33v-22.72c0-1.29,1.04-2.33,2.33-2.33h29.19c1.29,0,2.33,1.04,2.33,2.33v22.72c0,1.29,1.04,2.33,2.33,2.33h0c1.29,0,2.33-1.04,2.33-2.33v-22.72c0-1.29,1.04-2.33,2.33-2.33h24.54c1.29,0,2.33,1.04,2.33,2.33v66.38c0,1.29-1.04,2.33-2.33,2.33h-53.75c-4.55-4.55-7.09-7.09-11.64-11.64v-25.03c0-1.29,1.04-2.33,2.33-2.33h23.65c1.29,0,2.33-1.04,2.33-2.33Z"/>
          <rect class="cls-2" x="241.05" y="25.66" width="19.72" height="19.72" transform="translate(48.37 187.82) rotate(-45)"/>
          <rect class="cls-2" x="168.67" y="99.6" width="19.72" height="19.72" transform="translate(-25.11 158.29) rotate(-45)"/>
        </g>
      </g>
      <g id="_Grid_Repeat_-3" data-name="&amp;lt;Grid Repeat&amp;gt;">
        <g>
          <path class="cls-1" d="M328.73,41.33h0c0,1.29,1.04,2.33,2.33,2.33h23.65c1.29,0,2.33,1.04,2.33,2.33v22.72c0,1.29-1.04,2.33-2.33,2.33h-29.19c-1.29,0-2.33-1.04-2.33-2.33v-22.72c0-1.29-1.04-2.33-2.33-2.33h0c-1.29,0-2.33,1.04-2.33,2.33v22.72c0,1.29-1.04,2.33-2.33,2.33h-24.54c-1.29,0-2.33-1.04-2.33-2.33V2.33C289.32,1.04,290.37,0,291.66,0h53.75l11.64,11.64v25.03c0,1.29-1.04,2.33-2.33,2.33h-23.65c-1.29,0-2.33,1.04-2.33,2.33Z"/>
          <path class="cls-1" d="M390.02,103.65h0c0-1.29-1.04-2.33-2.33-2.33h-23.65c-1.29,0-2.33-1.04-2.33-2.33v-22.72c0-1.29,1.04-2.33,2.33-2.33h29.19c1.29,0,2.33,1.04,2.33,2.33v22.72c0,1.29,1.04,2.33,2.33,2.33h0c1.29,0,2.33-1.04,2.33-2.33v-22.72c0-1.29,1.04-2.33,2.33-2.33h24.54c1.29,0,2.33,1.04,2.33,2.33v66.38c0,1.29-1.04,2.33-2.33,2.33h-53.75c-4.55-4.55-7.09-7.09-11.64-11.64v-25.03c0-1.29,1.04-2.33,2.33-2.33h23.65c1.29,0,2.33-1.04,2.33-2.33Z"/>
          <rect class="cls-2" x="385.71" y="25.66" width="19.72" height="19.72" transform="translate(90.74 290.12) rotate(-45)"/>
          <rect class="cls-2" x="313.33" y="99.6" width="19.72" height="19.72" transform="translate(17.26 260.59) rotate(-45)"/>
        </g>
      </g>
      <g id="_Grid_Repeat_-4" data-name="&amp;lt;Grid Repeat&amp;gt;">
        <g>
          <path class="cls-1" d="M473.4,41.33h0c0,1.29,1.04,2.33,2.33,2.33h23.65c1.29,0,2.33,1.04,2.33,2.33v22.72c0,1.29-1.04,2.33-2.33,2.33h-29.19c-1.29,0-2.33-1.04-2.33-2.33v-22.72c0-1.29-1.04-2.33-2.33-2.33h0c-1.29,0-2.33,1.04-2.33,2.33v22.72c0,1.29-1.04,2.33-2.33,2.33h-24.54c-1.29,0-2.33-1.04-2.33-2.33V2.33C433.99,1.04,435.03,0,436.32,0h53.75l11.64,11.64v25.03c0,1.29-1.04,2.33-2.33,2.33h-23.65c-1.29,0-2.33,1.04-2.33,2.33Z"/>
          <path class="cls-1" d="M534.68,103.65h0c0-1.29-1.04-2.33-2.33-2.33h-23.65c-1.29,0-2.33-1.04-2.33-2.33v-22.72c0-1.29,1.04-2.33,2.33-2.33h29.19c1.29,0,2.33,1.04,2.33,2.33v22.72c0,1.29,1.04,2.33,2.33,2.33h0c1.29,0,2.33-1.04,2.33-2.33v-22.72c0-1.29,1.04-2.33,2.33-2.33h24.54c1.29,0,2.33,1.04,2.33,2.33v66.38c0,1.29-1.04,2.33-2.33,2.33h-53.75c-4.55-4.55-7.09-7.09-11.64-11.64v-25.03c0-1.29,1.04-2.33,2.33-2.33h23.65c1.29,0,2.33-1.04,2.33-2.33Z"/>
          <rect class="cls-2" x="530.38" y="25.66" width="19.72" height="19.72" transform="translate(133.11 392.41) rotate(-45)"/>
          <rect class="cls-2" x="457.99" y="99.6" width="19.72" height="19.72" transform="translate(59.63 362.88) rotate(-45)"/>
        </g>
      </g>
      <g id="_Grid_Repeat_-5" data-name="&amp;lt;Grid Repeat&amp;gt;">
        <g>
          <path class="cls-1" d="M618.06,41.33h0c0,1.29,1.04,2.33,2.33,2.33h23.65c1.29,0,2.33,1.04,2.33,2.33v22.72c0,1.29-1.04,2.33-2.33,2.33h-29.19c-1.29,0-2.33-1.04-2.33-2.33v-22.72c0-1.29-1.04-2.33-2.33-2.33h0c-1.29,0-2.33,1.04-2.33,2.33v22.72c0,1.29-1.04,2.33-2.33,2.33h-24.54c-1.29,0-2.33-1.04-2.33-2.33V2.33C578.65,1.04,579.69,0,580.98,0h53.75l11.64,11.64v25.03c0,1.29-1.04,2.33-2.33,2.33h-23.65c-1.29,0-2.33,1.04-2.33,2.33Z"/>
          <path class="cls-1" d="M679.35,103.65h0c0-1.29-1.04-2.33-2.33-2.33h-23.65c-1.29,0-2.33-1.04-2.33-2.33v-22.72c0-1.29,1.04-2.33,2.33-2.33h29.19c1.29,0,2.33,1.04,2.33,2.33v22.72c0,1.29,1.04,2.33,2.33,2.33h0c1.29,0,2.33-1.04,2.33-2.33v-22.72c0-1.29,1.04-2.33,2.33-2.33h24.54c1.29,0,2.33,1.04,2.33,2.33v66.38c0,1.29-1.04,2.33-2.33,2.33h-53.75c-4.55-4.55-7.09-7.09-11.64-11.64v-25.03c0-1.29,1.04-2.33,2.33-2.33h23.65c1.29,0,2.33-1.04,2.33-2.33Z"/>
          <rect class="cls-2" x="675.04" y="25.66" width="19.72" height="19.72" transform="translate(175.48 494.7) rotate(-45)"/>
          <rect class="cls-2" x="602.65" y="99.6" width="19.72" height="19.72" transform="translate(102 465.17) rotate(-45)"/>
        </g>
      </g>
      <g id="_Grid_Repeat_-6" data-name="&amp;lt;Grid Repeat&amp;gt;">
        <g>
          <path class="cls-1" d="M762.72,41.33h0c0,1.29,1.04,2.33,2.33,2.33h23.65c1.29,0,2.33,1.04,2.33,2.33v22.72c0,1.29-1.04,2.33-2.33,2.33h-29.19c-1.29,0-2.33-1.04-2.33-2.33v-22.72c0-1.29-1.04-2.33-2.33-2.33h0c-1.29,0-2.33,1.04-2.33,2.33v22.72c0,1.29-1.04,2.33-2.33,2.33h-24.54c-1.29,0-2.33-1.04-2.33-2.33V2.33C723.31,1.04,724.35,0,725.64,0h53.75l11.64,11.64v25.03c0,1.29-1.04,2.33-2.33,2.33h-23.65c-1.29,0-2.33,1.04-2.33,2.33Z"/>
          <path class="cls-1" d="M824.01,103.65h0c0-1.29-1.04-2.33-2.33-2.33h-23.65c-1.29,0-2.33-1.04-2.33-2.33v-22.72c0-1.29,1.04-2.33,2.33-2.33h29.19c1.29,0,2.33,1.04,2.33,2.33v22.72c0,1.29,1.04,2.33,2.33,2.33h0c1.29,0,2.33-1.04,2.33-2.33v-22.72c0-1.29,1.04-2.33,2.33-2.33h24.54c1.29,0,2.33,1.04,2.33,2.33v66.38c0,1.29-1.04,2.33-2.33,2.33h-53.75c-4.55-4.55-7.09-7.09-11.64-11.64v-25.03c0-1.29,1.04-2.33,2.33-2.33h23.65c1.29,0,2.33-1.04,2.33-2.33Z"/>
          <rect class="cls-2" x="819.7" y="25.66" width="19.72" height="19.72" transform="translate(217.85 596.99) rotate(-45)"/>
          <rect class="cls-2" x="747.31" y="99.6" width="19.72" height="19.72" transform="translate(144.37 567.46) rotate(-45)"/>
        </g>
      </g>
      <g id="_Grid_Repeat_-7" data-name="&amp;lt;Grid Repeat&amp;gt;">
        <g>
          <path class="cls-1" d="M907.38,41.33h0c0,1.29,1.04,2.33,2.33,2.33h23.65c1.29,0,2.33,1.04,2.33,2.33v22.72c0,1.29-1.04,2.33-2.33,2.33h-29.19c-1.29,0-2.33-1.04-2.33-2.33v-22.72c0-1.29-1.04-2.33-2.33-2.33h0c-1.29,0-2.33,1.04-2.33,2.33v22.72c0,1.29-1.04,2.33-2.33,2.33h-24.54c-1.29,0-2.33-1.04-2.33-2.33V2.33C867.97,1.04,869.02,0,870.3,0h53.75l11.64,11.64v25.03c0,1.29-1.04,2.33-2.33,2.33h-23.65c-1.29,0-2.33,1.04-2.33,2.33Z"/>
          <path class="cls-1" d="M968.67,103.65h0c0-1.29-1.04-2.33-2.33-2.33h-23.65c-1.29,0-2.33-1.04-2.33-2.33v-22.72c0-1.29,1.04-2.33,2.33-2.33h29.19c1.29,0,2.33,1.04,2.33,2.33v22.72c0,1.29,1.04,2.33,2.33,2.33h0c1.29,0,2.33-1.04,2.33-2.33v-22.72c0-1.29,1.04-2.33,2.33-2.33h24.54c1.29,0,2.33,1.04,2.33,2.33v66.38c0,1.29-1.04,2.33-2.33,2.33h-53.75c-4.55-4.55-7.09-7.09-11.64-11.64v-25.03c0-1.29,1.04-2.33,2.33-2.33h23.65c1.29,0,2.33-1.04,2.33-2.33Z"/>
          <rect class="cls-2" x="964.36" y="25.66" width="19.72" height="19.72" transform="translate(260.22 699.28) rotate(-45)"/>
          <rect class="cls-2" x="891.98" y="99.6" width="19.72" height="19.72" transform="translate(186.74 669.75) rotate(-45)"/>
        </g>
      </g>
      <g id="_Grid_Repeat_-8" data-name="&amp;lt;Grid Repeat&amp;gt;">
        <g>
          <path class="cls-1" d="M1052.04,41.33h0c0,1.29,1.04,2.33,2.33,2.33h23.65c1.29,0,2.33,1.04,2.33,2.33v22.72c0,1.29-1.04,2.33-2.33,2.33h-29.19c-1.29,0-2.33-1.04-2.33-2.33v-22.72c0-1.29-1.04-2.33-2.33-2.33h0c-1.29,0-2.33,1.04-2.33,2.33v22.72c0,1.29-1.04,2.33-2.33,2.33h-24.54c-1.29,0-2.33-1.04-2.33-2.33V2.33C1012.63,1.04,1013.68,0,1014.97,0h53.75l11.64,11.64v25.03c0,1.29-1.04,2.33-2.33,2.33h-23.65c-1.29,0-2.33,1.04-2.33,2.33Z"/>
          <rect class="cls-2" x="1036.64" y="99.6" width="19.72" height="19.72" transform="translate(229.11 772.04) rotate(-45)"/>
        </g>
      </g>
      <g id="_Grid_Repeat_-9" data-name="&amp;lt;Grid Repeat&amp;gt;">
        <g>
          <path class="cls-1" d="M39.41,190.86h0c0,1.29,1.04,2.33,2.33,2.33h23.65c1.29,0,2.33,1.04,2.33,2.33v22.72c0,1.29-1.04,2.33-2.33,2.33h-29.19c-1.29,0-2.33-1.04-2.33-2.33v-22.72c0-1.29-1.04-2.33-2.33-2.33h0c-1.29,0-2.33,1.04-2.33,2.33v22.72c0,1.29-1.04,2.33-2.33,2.33H2.33C1.04,220.58,0,219.53,0,218.24v-66.38c0-1.29,1.04-2.33,2.33-2.33h53.75l11.64,11.64v25.03c0,1.29-1.04,2.33-2.33,2.33h-23.65c-1.29,0-2.33,1.04-2.33,2.33Z"/>
          <path class="cls-1" d="M100.7,253.18h0c0-1.29-1.04-2.33-2.33-2.33h-23.65c-1.29,0-2.33-1.04-2.33-2.33v-22.72c0-1.29,1.04-2.33,2.33-2.33h29.19c1.29,0,2.33,1.04,2.33,2.33v22.72c0,1.29,1.04,2.33,2.33,2.33h0c1.29,0,2.33-1.04,2.33-2.33v-22.72c0-1.29,1.04-2.33,2.33-2.33h24.54c1.29,0,2.33,1.04,2.33,2.33v66.38c0,1.29-1.04,2.33-2.33,2.33h-53.75c-4.55-4.55-7.09-7.09-11.64-11.64v-25.03c0-1.29,1.04-2.33,2.33-2.33h23.65c1.29,0,2.33-1.04,2.33-2.33Z"/>
          <rect class="cls-2" x="96.39" y="175.2" width="19.72" height="19.72" transform="translate(-99.73 129.33) rotate(-45)"/>
          <rect class="cls-2" x="24" y="249.13" width="19.72" height="19.72" transform="translate(-173.22 99.8) rotate(-45)"/>
        </g>
      </g>
      <g id="_Grid_Repeat_-10" data-name="&amp;lt;Grid Repeat&amp;gt;">
        <g>
          <path class="cls-1" d="M184.07,190.86h0c0,1.29,1.04,2.33,2.33,2.33h23.65c1.29,0,2.33,1.04,2.33,2.33v22.72c0,1.29-1.04,2.33-2.33,2.33h-29.19c-1.29,0-2.33-1.04-2.33-2.33v-22.72c0-1.29-1.04-2.33-2.33-2.33h0c-1.29,0-2.33,1.04-2.33,2.33v22.72c0,1.29-1.04,2.33-2.33,2.33h-24.54c-1.29,0-2.33-1.04-2.33-2.33v-66.38c0-1.29,1.04-2.33,2.33-2.33h53.75l11.64,11.64v25.03c0,1.29-1.04,2.33-2.33,2.33h-23.65c-1.29,0-2.33,1.04-2.33,2.33Z"/>
          <path class="cls-1" d="M245.36,253.18h0c0-1.29-1.04-2.33-2.33-2.33h-23.65c-1.29,0-2.33-1.04-2.33-2.33v-22.72c0-1.29,1.04-2.33,2.33-2.33h29.19c1.29,0,2.33,1.04,2.33,2.33v22.72c0,1.29,1.04,2.33,2.33,2.33h0c1.29,0,2.33-1.04,2.33-2.33v-22.72c0-1.29,1.04-2.33,2.33-2.33h24.54c1.29,0,2.33,1.04,2.33,2.33v66.38c0,1.29-1.04,2.33-2.33,2.33h-53.75c-4.55-4.55-7.09-7.09-11.64-11.64v-25.03c0-1.29,1.04-2.33,2.33-2.33h23.65c1.29,0,2.33-1.04,2.33-2.33Z"/>
          <rect class="cls-2" x="241.05" y="175.2" width="19.72" height="19.72" transform="translate(-57.36 231.62) rotate(-45)"/>
          <rect class="cls-2" x="168.67" y="249.13" width="19.72" height="19.72" transform="translate(-130.85 202.09) rotate(-45)"/>
        </g>
      </g>
      <g id="_Grid_Repeat_-11" data-name="&amp;lt;Grid Repeat&amp;gt;">
        <g>
          <path class="cls-1" d="M328.73,190.86h0c0,1.29,1.04,2.33,2.33,2.33h23.65c1.29,0,2.33,1.04,2.33,2.33v22.72c0,1.29-1.04,2.33-2.33,2.33h-29.19c-1.29,0-2.33-1.04-2.33-2.33v-22.72c0-1.29-1.04-2.33-2.33-2.33h0c-1.29,0-2.33,1.04-2.33,2.33v22.72c0,1.29-1.04,2.33-2.33,2.33h-24.54c-1.29,0-2.33-1.04-2.33-2.33v-66.38c0-1.29,1.04-2.33,2.33-2.33h53.75l11.64,11.64v25.03c0,1.29-1.04,2.33-2.33,2.33h-23.65c-1.29,0-2.33,1.04-2.33,2.33Z"/>
          <path class="cls-1" d="M390.02,253.18h0c0-1.29-1.04-2.33-2.33-2.33h-23.65c-1.29,0-2.33-1.04-2.33-2.33v-22.72c0-1.29,1.04-2.33,2.33-2.33h29.19c1.29,0,2.33,1.04,2.33,2.33v22.72c0,1.29,1.04,2.33,2.33,2.33h0c1.29,0,2.33-1.04,2.33-2.33v-22.72c0-1.29,1.04-2.33,2.33-2.33h24.54c1.29,0,2.33,1.04,2.33,2.33v66.38c0,1.29-1.04,2.33-2.33,2.33h-53.75c-4.55-4.55-7.09-7.09-11.64-11.64v-25.03c0-1.29,1.04-2.33,2.33-2.33h23.65c1.29,0,2.33-1.04,2.33-2.33Z"/>
          <rect class="cls-2" x="385.71" y="175.2" width="19.72" height="19.72" transform="translate(-14.99 333.91) rotate(-45)"/>
          <rect class="cls-2" x="313.33" y="249.13" width="19.72" height="19.72" transform="translate(-88.48 304.38) rotate(-45)"/>
        </g>
      </g>
      <g id="_Grid_Repeat_-12" data-name="&amp;lt;Grid Repeat&amp;gt;">
        <g>
          <path class="cls-1" d="M473.4,190.86h0c0,1.29,1.04,2.33,2.33,2.33h23.65c1.29,0,2.33,1.04,2.33,2.33v22.72c0,1.29-1.04,2.33-2.33,2.33h-29.19c-1.29,0-2.33-1.04-2.33-2.33v-22.72c0-1.29-1.04-2.33-2.33-2.33h0c-1.29,0-2.33,1.04-2.33,2.33v22.72c0,1.29-1.04,2.33-2.33,2.33h-24.54c-1.29,0-2.33-1.04-2.33-2.33v-66.38c0-1.29,1.04-2.33,2.33-2.33h53.75l11.64,11.64v25.03c0,1.29-1.04,2.33-2.33,2.33h-23.65c-1.29,0-2.33,1.04-2.33,2.33Z"/>
          <path class="cls-1" d="M534.68,253.18h0c0-1.29-1.04-2.33-2.33-2.33h-23.65c-1.29,0-2.33-1.04-2.33-2.33v-22.72c0-1.29,1.04-2.33,2.33-2.33h29.19c1.29,0,2.33,1.04,2.33,2.33v22.72c0,1.29,1.04,2.33,2.33,2.33h0c1.29,0,2.33-1.04,2.33-2.33v-22.72c0-1.29,1.04-2.33,2.33-2.33h24.54c1.29,0,2.33,1.04,2.33,2.33v66.38c0,1.29-1.04,2.33-2.33,2.33h-53.75c-4.55-4.55-7.09-7.09-11.64-11.64v-25.03c0-1.29,1.04-2.33,2.33-2.33h23.65c1.29,0,2.33-1.04,2.33-2.33Z"/>
          <rect class="cls-2" x="530.38" y="175.2" width="19.72" height="19.72" transform="translate(27.38 436.2) rotate(-45)"/>
          <rect class="cls-2" x="457.99" y="249.13" width="19.72" height="19.72" transform="translate(-46.1 406.67) rotate(-45)"/>
        </g>
      </g>
      <g id="_Grid_Repeat_-13" data-name="&amp;lt;Grid Repeat&amp;gt;">
        <g>
          <path class="cls-1" d="M618.06,190.86h0c0,1.29,1.04,2.33,2.33,2.33h23.65c1.29,0,2.33,1.04,2.33,2.33v22.72c0,1.29-1.04,2.33-2.33,2.33h-29.19c-1.29,0-2.33-1.04-2.33-2.33v-22.72c0-1.29-1.04-2.33-2.33-2.33h0c-1.29,0-2.33,1.04-2.33,2.33v22.72c0,1.29-1.04,2.33-2.33,2.33h-24.54c-1.29,0-2.33-1.04-2.33-2.33v-66.38c0-1.29,1.04-2.33,2.33-2.33h53.75l11.64,11.64v25.03c0,1.29-1.04,2.33-2.33,2.33h-23.65c-1.29,0-2.33,1.04-2.33,2.33Z"/>
          <path class="cls-1" d="M679.35,253.18h0c0-1.29-1.04-2.33-2.33-2.33h-23.65c-1.29,0-2.33-1.04-2.33-2.33v-22.72c0-1.29,1.04-2.33,2.33-2.33h29.19c1.29,0,2.33,1.04,2.33,2.33v22.72c0,1.29,1.04,2.33,2.33,2.33h0c1.29,0,2.33-1.04,2.33-2.33v-22.72c0-1.29,1.04-2.33,2.33-2.33h24.54c1.29,0,2.33,1.04,2.33,2.33v66.38c0,1.29-1.04,2.33-2.33,2.33h-53.75c-4.55-4.55-7.09-7.09-11.64-11.64v-25.03c0-1.29,1.04-2.33,2.33-2.33h23.65c1.29,0,2.33-1.04,2.33-2.33Z"/>
          <rect class="cls-2" x="675.04" y="175.2" width="19.72" height="19.72" transform="translate(69.75 538.5) rotate(-45)"/>
          <rect class="cls-2" x="602.65" y="249.13" width="19.72" height="19.72" transform="translate(-3.73 508.97) rotate(-45)"/>
        </g>
      </g>
      <g id="_Grid_Repeat_-14" data-name="&amp;lt;Grid Repeat&amp;gt;">
        <g>
          <path class="cls-1" d="M762.72,190.86h0c0,1.29,1.04,2.33,2.33,2.33h23.65c1.29,0,2.33,1.04,2.33,2.33v22.72c0,1.29-1.04,2.33-2.33,2.33h-29.19c-1.29,0-2.33-1.04-2.33-2.33v-22.72c0-1.29-1.04-2.33-2.33-2.33h0c-1.29,0-2.33,1.04-2.33,2.33v22.72c0,1.29-1.04,2.33-2.33,2.33h-24.54c-1.29,0-2.33-1.04-2.33-2.33v-66.38c0-1.29,1.04-2.33,2.33-2.33h53.75l11.64,11.64v25.03c0,1.29-1.04,2.33-2.33,2.33h-23.65c-1.29,0-2.33,1.04-2.33,2.33Z"/>
          <path class="cls-1" d="M824.01,253.18h0c0-1.29-1.04-2.33-2.33-2.33h-23.65c-1.29,0-2.33-1.04-2.33-2.33v-22.72c0-1.29,1.04-2.33,2.33-2.33h29.19c1.29,0,2.33,1.04,2.33,2.33v22.72c0,1.29,1.04,2.33,2.33,2.33h0c1.29,0,2.33-1.04,2.33-2.33v-22.72c0-1.29,1.04-2.33,2.33-2.33h24.54c1.29,0,2.33,1.04,2.33,2.33v66.38c0,1.29-1.04,2.33-2.33,2.33h-53.75c-4.55-4.55-7.09-7.09-11.64-11.64v-25.03c0-1.29,1.04-2.33,2.33-2.33h23.65c1.29,0,2.33-1.04,2.33-2.33Z"/>
          <rect class="cls-2" x="819.7" y="175.2" width="19.72" height="19.72" transform="translate(112.12 640.79) rotate(-45)"/>
          <rect class="cls-2" x="747.31" y="249.13" width="19.72" height="19.72" transform="translate(38.64 611.26) rotate(-45)"/>
        </g>
      </g>
      <g id="_Grid_Repeat_-15" data-name="&amp;lt;Grid Repeat&amp;gt;">
        <g>
          <path class="cls-1" d="M907.38,190.86h0c0,1.29,1.04,2.33,2.33,2.33h23.65c1.29,0,2.33,1.04,2.33,2.33v22.72c0,1.29-1.04,2.33-2.33,2.33h-29.19c-1.29,0-2.33-1.04-2.33-2.33v-22.72c0-1.29-1.04-2.33-2.33-2.33h0c-1.29,0-2.33,1.04-2.33,2.33v22.72c0,1.29-1.04,2.33-2.33,2.33h-24.54c-1.29,0-2.33-1.04-2.33-2.33v-66.38c0-1.29,1.04-2.33,2.33-2.33h53.75l11.64,11.64v25.03c0,1.29-1.04,2.33-2.33,2.33h-23.65c-1.29,0-2.33,1.04-2.33,2.33Z"/>
          <path class="cls-1" d="M968.67,253.18h0c0-1.29-1.04-2.33-2.33-2.33h-23.65c-1.29,0-2.33-1.04-2.33-2.33v-22.72c0-1.29,1.04-2.33,2.33-2.33h29.19c1.29,0,2.33,1.04,2.33,2.33v22.72c0,1.29,1.04,2.33,2.33,2.33h0c1.29,0,2.33-1.04,2.33-2.33v-22.72c0-1.29,1.04-2.33,2.33-2.33h24.54c1.29,0,2.33,1.04,2.33,2.33v66.38c0,1.29-1.04,2.33-2.33,2.33h-53.75c-4.55-4.55-7.09-7.09-11.64-11.64v-25.03c0-1.29,1.04-2.33,2.33-2.33h23.65c1.29,0,2.33-1.04,2.33-2.33Z"/>
          <rect class="cls-2" x="964.36" y="175.2" width="19.72" height="19.72" transform="translate(154.49 743.08) rotate(-45)"/>
          <rect class="cls-2" x="891.98" y="249.13" width="19.72" height="19.72" transform="translate(81.01 713.55) rotate(-45)"/>
        </g>
      </g>
      <g id="_Grid_Repeat_-16" data-name="&amp;lt;Grid Repeat&amp;gt;">
        <g>
          <path class="cls-1" d="M1052.04,190.86h0c0,1.29,1.04,2.33,2.33,2.33h23.65c1.29,0,2.33,1.04,2.33,2.33v22.72c0,1.29-1.04,2.33-2.33,2.33h-29.19c-1.29,0-2.33-1.04-2.33-2.33v-22.72c0-1.29-1.04-2.33-2.33-2.33h0c-1.29,0-2.33,1.04-2.33,2.33v22.72c0,1.29-1.04,2.33-2.33,2.33h-24.54c-1.29,0-2.33-1.04-2.33-2.33v-66.38c0-1.29,1.04-2.33,2.33-2.33h53.75l11.64,11.64v25.03c0,1.29-1.04,2.33-2.33,2.33h-23.65c-1.29,0-2.33,1.04-2.33,2.33Z"/>
          <rect class="cls-2" x="1036.64" y="249.13" width="19.72" height="19.72" transform="translate(123.38 815.84) rotate(-45)"/>
        </g>
      </g>
      <g id="_Grid_Repeat_-17" data-name="&amp;lt;Grid Repeat&amp;gt;">
        <g>
          <path class="cls-1" d="M39.41,340.4h0c0,1.29,1.04,2.33,2.33,2.33h23.65c1.29,0,2.33,1.04,2.33,2.33v22.72c0,1.29-1.04,2.33-2.33,2.33h-29.19c-1.29,0-2.33-1.04-2.33-2.33v-22.72c0-1.29-1.04-2.33-2.33-2.33h0c-1.29,0-2.33,1.04-2.33,2.33v22.72c0,1.29-1.04,2.33-2.33,2.33H2.33C1.04,370.11,0,369.06,0,367.78v-66.38c0-1.29,1.04-2.33,2.33-2.33h53.75l11.64,11.64v25.03c0,1.29-1.04,2.33-2.33,2.33h-23.65c-1.29,0-2.33,1.04-2.33,2.33Z"/>
          <path class="cls-1" d="M100.7,402.71h0c0-1.29-1.04-2.33-2.33-2.33h-23.65c-1.29,0-2.33-1.04-2.33-2.33v-22.72c0-1.29,1.04-2.33,2.33-2.33h29.19c1.29,0,2.33,1.04,2.33,2.33v22.72c0,1.29,1.04,2.33,2.33,2.33h0c1.29,0,2.33-1.04,2.33-2.33v-22.72c0-1.29,1.04-2.33,2.33-2.33h24.54c1.29,0,2.33,1.04,2.33,2.33v66.38c0,1.29-1.04,2.33-2.33,2.33h-53.75c-4.55-4.55-7.09-7.09-11.64-11.64v-25.03c0-1.29,1.04-2.33,2.33-2.33h23.65c1.29,0,2.33-1.04,2.33-2.33Z"/>
          <rect class="cls-2" x="96.39" y="324.73" width="19.72" height="19.72" transform="translate(-205.47 173.13) rotate(-45)"/>
          <rect class="cls-2" x="24" y="398.66" width="19.72" height="19.72" transform="translate(-278.95 143.6) rotate(-45)"/>
        </g>
      </g>
      <g id="_Grid_Repeat_-18" data-name="&amp;lt;Grid Repeat&amp;gt;">
        <g>
          <path class="cls-1" d="M184.07,340.4h0c0,1.29,1.04,2.33,2.33,2.33h23.65c1.29,0,2.33,1.04,2.33,2.33v22.72c0,1.29-1.04,2.33-2.33,2.33h-29.19c-1.29,0-2.33-1.04-2.33-2.33v-22.72c0-1.29-1.04-2.33-2.33-2.33h0c-1.29,0-2.33,1.04-2.33,2.33v22.72c0,1.29-1.04,2.33-2.33,2.33h-24.54c-1.29,0-2.33-1.04-2.33-2.33v-66.38c0-1.29,1.04-2.33,2.33-2.33h53.75l11.64,11.64v25.03c0,1.29-1.04,2.33-2.33,2.33h-23.65c-1.29,0-2.33,1.04-2.33,2.33Z"/>
          <path class="cls-1" d="M245.36,402.71h0c0-1.29-1.04-2.33-2.33-2.33h-23.65c-1.29,0-2.33-1.04-2.33-2.33v-22.72c0-1.29,1.04-2.33,2.33-2.33h29.19c1.29,0,2.33,1.04,2.33,2.33v22.72c0,1.29,1.04,2.33,2.33,2.33h0c1.29,0,2.33-1.04,2.33-2.33v-22.72c0-1.29,1.04-2.33,2.33-2.33h24.54c1.29,0,2.33,1.04,2.33,2.33v66.38c0,1.29-1.04,2.33-2.33,2.33h-53.75c-4.55-4.55-7.09-7.09-11.64-11.64v-25.03c0-1.29,1.04-2.33,2.33-2.33h23.65c1.29,0,2.33-1.04,2.33-2.33Z"/>
          <rect class="cls-2" x="241.05" y="324.73" width="19.72" height="19.72" transform="translate(-163.1 275.42) rotate(-45)"/>
          <rect class="cls-2" x="168.67" y="398.66" width="19.72" height="19.72" transform="translate(-236.58 245.89) rotate(-45)"/>
        </g>
      </g>
      <g id="_Grid_Repeat_-19" data-name="&amp;lt;Grid Repeat&amp;gt;">
        <g>
          <path class="cls-1" d="M328.73,340.4h0c0,1.29,1.04,2.33,2.33,2.33h23.65c1.29,0,2.33,1.04,2.33,2.33v22.72c0,1.29-1.04,2.33-2.33,2.33h-29.19c-1.29,0-2.33-1.04-2.33-2.33v-22.72c0-1.29-1.04-2.33-2.33-2.33h0c-1.29,0-2.33,1.04-2.33,2.33v22.72c0,1.29-1.04,2.33-2.33,2.33h-24.54c-1.29,0-2.33-1.04-2.33-2.33v-66.38c0-1.29,1.04-2.33,2.33-2.33h53.75l11.64,11.64v25.03c0,1.29-1.04,2.33-2.33,2.33h-23.65c-1.29,0-2.33,1.04-2.33,2.33Z"/>
          <path class="cls-1" d="M390.02,402.71h0c0-1.29-1.04-2.33-2.33-2.33h-23.65c-1.29,0-2.33-1.04-2.33-2.33v-22.72c0-1.29,1.04-2.33,2.33-2.33h29.19c1.29,0,2.33,1.04,2.33,2.33v22.72c0,1.29,1.04,2.33,2.33,2.33h0c1.29,0,2.33-1.04,2.33-2.33v-22.72c0-1.29,1.04-2.33,2.33-2.33h24.54c1.29,0,2.33,1.04,2.33,2.33v66.38c0,1.29-1.04,2.33-2.33,2.33h-53.75c-4.55-4.55-7.09-7.09-11.64-11.64v-25.03c0-1.29,1.04-2.33,2.33-2.33h23.65c1.29,0,2.33-1.04,2.33-2.33Z"/>
          <rect class="cls-2" x="385.71" y="324.73" width="19.72" height="19.72" transform="translate(-120.73 377.71) rotate(-45)"/>
          <rect class="cls-2" x="313.33" y="398.66" width="19.72" height="19.72" transform="translate(-194.21 348.18) rotate(-45)"/>
        </g>
      </g>
      <g id="_Grid_Repeat_-20" data-name="&amp;lt;Grid Repeat&amp;gt;">
        <g>
          <path class="cls-1" d="M473.4,340.4h0c0,1.29,1.04,2.33,2.33,2.33h23.65c1.29,0,2.33,1.04,2.33,2.33v22.72c0,1.29-1.04,2.33-2.33,2.33h-29.19c-1.29,0-2.33-1.04-2.33-2.33v-22.72c0-1.29-1.04-2.33-2.33-2.33h0c-1.29,0-2.33,1.04-2.33,2.33v22.72c0,1.29-1.04,2.33-2.33,2.33h-24.54c-1.29,0-2.33-1.04-2.33-2.33v-66.38c0-1.29,1.04-2.33,2.33-2.33h53.75l11.64,11.64v25.03c0,1.29-1.04,2.33-2.33,2.33h-23.65c-1.29,0-2.33,1.04-2.33,2.33Z"/>
          <path class="cls-1" d="M534.68,402.71h0c0-1.29-1.04-2.33-2.33-2.33h-23.65c-1.29,0-2.33-1.04-2.33-2.33v-22.72c0-1.29,1.04-2.33,2.33-2.33h29.19c1.29,0,2.33,1.04,2.33,2.33v22.72c0,1.29,1.04,2.33,2.33,2.33h0c1.29,0,2.33-1.04,2.33-2.33v-22.72c0-1.29,1.04-2.33,2.33-2.33h24.54c1.29,0,2.33,1.04,2.33,2.33v66.38c0,1.29-1.04,2.33-2.33,2.33h-53.75c-4.55-4.55-7.09-7.09-11.64-11.64v-25.03c0-1.29,1.04-2.33,2.33-2.33h23.65c1.29,0,2.33-1.04,2.33-2.33Z"/>
          <rect class="cls-2" x="530.38" y="324.73" width="19.72" height="19.72" transform="translate(-78.36 480) rotate(-45)"/>
          <rect class="cls-2" x="457.99" y="398.66" width="19.72" height="19.72" transform="translate(-151.84 450.47) rotate(-45)"/>
        </g>
      </g>
      <g id="_Grid_Repeat_-21" data-name="&amp;lt;Grid Repeat&amp;gt;">
        <g>
          <path class="cls-1" d="M618.06,340.4h0c0,1.29,1.04,2.33,2.33,2.33h23.65c1.29,0,2.33,1.04,2.33,2.33v22.72c0,1.29-1.04,2.33-2.33,2.33h-29.19c-1.29,0-2.33-1.04-2.33-2.33v-22.72c0-1.29-1.04-2.33-2.33-2.33h0c-1.29,0-2.33,1.04-2.33,2.33v22.72c0,1.29-1.04,2.33-2.33,2.33h-24.54c-1.29,0-2.33-1.04-2.33-2.33v-66.38c0-1.29,1.04-2.33,2.33-2.33h53.75l11.64,11.64v25.03c0,1.29-1.04,2.33-2.33,2.33h-23.65c-1.29,0-2.33,1.04-2.33,2.33Z"/>
          <path class="cls-1" d="M679.35,402.71h0c0-1.29-1.04-2.33-2.33-2.33h-23.65c-1.29,0-2.33-1.04-2.33-2.33v-22.72c0-1.29,1.04-2.33,2.33-2.33h29.19c1.29,0,2.33,1.04,2.33,2.33v22.72c0,1.29,1.04,2.33,2.33,2.33h0c1.29,0,2.33-1.04,2.33-2.33v-22.72c0-1.29,1.04-2.33,2.33-2.33h24.54c1.29,0,2.33,1.04,2.33,2.33v66.38c0,1.29-1.04,2.33-2.33,2.33h-53.75c-4.55-4.55-7.09-7.09-11.64-11.64v-25.03c0-1.29,1.04-2.33,2.33-2.33h23.65c1.29,0,2.33-1.04,2.33-2.33Z"/>
          <rect class="cls-2" x="675.04" y="324.73" width="19.72" height="19.72" transform="translate(-35.99 582.29) rotate(-45)"/>
          <rect class="cls-2" x="602.65" y="398.66" width="19.72" height="19.72" transform="translate(-109.47 552.76) rotate(-45)"/>
        </g>
      </g>
      <g id="_Grid_Repeat_-22" data-name="&amp;lt;Grid Repeat&amp;gt;">
        <g>
          <path class="cls-1" d="M762.72,340.4h0c0,1.29,1.04,2.33,2.33,2.33h23.65c1.29,0,2.33,1.04,2.33,2.33v22.72c0,1.29-1.04,2.33-2.33,2.33h-29.19c-1.29,0-2.33-1.04-2.33-2.33v-22.72c0-1.29-1.04-2.33-2.33-2.33h0c-1.29,0-2.33,1.04-2.33,2.33v22.72c0,1.29-1.04,2.33-2.33,2.33h-24.54c-1.29,0-2.33-1.04-2.33-2.33v-66.38c0-1.29,1.04-2.33,2.33-2.33h53.75l11.64,11.64v25.03c0,1.29-1.04,2.33-2.33,2.33h-23.65c-1.29,0-2.33,1.04-2.33,2.33Z"/>
          <path class="cls-1" d="M824.01,402.71h0c0-1.29-1.04-2.33-2.33-2.33h-23.65c-1.29,0-2.33-1.04-2.33-2.33v-22.72c0-1.29,1.04-2.33,2.33-2.33h29.19c1.29,0,2.33,1.04,2.33,2.33v22.72c0,1.29,1.04,2.33,2.33,2.33h0c1.29,0,2.33-1.04,2.33-2.33v-22.72c0-1.29,1.04-2.33,2.33-2.33h24.54c1.29,0,2.33,1.04,2.33,2.33v66.38c0,1.29-1.04,2.33-2.33,2.33h-53.75c-4.55-4.55-7.09-7.09-11.64-11.64v-25.03c0-1.29,1.04-2.33,2.33-2.33h23.65c1.29,0,2.33-1.04,2.33-2.33Z"/>
          <rect class="cls-2" x="819.7" y="324.73" width="19.72" height="19.72" transform="translate(6.38 684.58) rotate(-45)"/>
          <rect class="cls-2" x="747.31" y="398.66" width="19.72" height="19.72" transform="translate(-67.1 655.05) rotate(-45)"/>
        </g>
      </g>
      <g id="_Grid_Repeat_-23" data-name="&amp;lt;Grid Repeat&amp;gt;">
        <g>
          <path class="cls-1" d="M907.38,340.4h0c0,1.29,1.04,2.33,2.33,2.33h23.65c1.29,0,2.33,1.04,2.33,2.33v22.72c0,1.29-1.04,2.33-2.33,2.33h-29.19c-1.29,0-2.33-1.04-2.33-2.33v-22.72c0-1.29-1.04-2.33-2.33-2.33h0c-1.29,0-2.33,1.04-2.33,2.33v22.72c0,1.29-1.04,2.33-2.33,2.33h-24.54c-1.29,0-2.33-1.04-2.33-2.33v-66.38c0-1.29,1.04-2.33,2.33-2.33h53.75l11.64,11.64v25.03c0,1.29-1.04,2.33-2.33,2.33h-23.65c-1.29,0-2.33,1.04-2.33,2.33Z"/>
          <path class="cls-1" d="M968.67,402.71h0c0-1.29-1.04-2.33-2.33-2.33h-23.65c-1.29,0-2.33-1.04-2.33-2.33v-22.72c0-1.29,1.04-2.33,2.33-2.33h29.19c1.29,0,2.33,1.04,2.33,2.33v22.72c0,1.29,1.04,2.33,2.33,2.33h0c1.29,0,2.33-1.04,2.33-2.33v-22.72c0-1.29,1.04-2.33,2.33-2.33h24.54c1.29,0,2.33,1.04,2.33,2.33v66.38c0,1.29-1.04,2.33-2.33,2.33h-53.75c-4.55-4.55-7.09-7.09-11.64-11.64v-25.03c0-1.29,1.04-2.33,2.33-2.33h23.65c1.29,0,2.33-1.04,2.33-2.33Z"/>
          <rect class="cls-2" x="964.36" y="324.73" width="19.72" height="19.72" transform="translate(48.75 786.88) rotate(-45)"/>
          <rect class="cls-2" x="891.98" y="398.66" width="19.72" height="19.72" transform="translate(-24.73 757.35) rotate(-45)"/>
        </g>
      </g>
      <g id="_Grid_Repeat_-24" data-name="&amp;lt;Grid Repeat&amp;gt;">
        <g>
          <path class="cls-1" d="M1052.04,340.4h0c0,1.29,1.04,2.33,2.33,2.33h23.65c1.29,0,2.33,1.04,2.33,2.33v22.72c0,1.29-1.04,2.33-2.33,2.33h-29.19c-1.29,0-2.33-1.04-2.33-2.33v-22.72c0-1.29-1.04-2.33-2.33-2.33h0c-1.29,0-2.33,1.04-2.33,2.33v22.72c0,1.29-1.04,2.33-2.33,2.33h-24.54c-1.29,0-2.33-1.04-2.33-2.33v-66.38c0-1.29,1.04-2.33,2.33-2.33h53.75l11.64,11.64v25.03c0,1.29-1.04,2.33-2.33,2.33h-23.65c-1.29,0-2.33,1.04-2.33,2.33Z"/>
          <rect class="cls-2" x="1036.64" y="398.66" width="19.72" height="19.72" transform="translate(17.64 859.64) rotate(-45)"/>
        </g>
      </g>
      <g id="_Grid_Repeat_-25" data-name="&amp;lt;Grid Repeat&amp;gt;">
        <g>
          <path class="cls-1" d="M39.41,489.93h0c0,1.29,1.04,2.33,2.33,2.33h23.65c1.29,0,2.33,1.04,2.33,2.33v22.72c0,1.29-1.04,2.33-2.33,2.33h-29.19c-1.29,0-2.33-1.04-2.33-2.33v-22.72c0-1.29-1.04-2.33-2.33-2.33h0c-1.29,0-2.33,1.04-2.33,2.33v22.72c0,1.29-1.04,2.33-2.33,2.33H2.33C1.04,519.64,0,518.6,0,517.31v-66.38c0-1.29,1.04-2.33,2.33-2.33h53.75l11.64,11.64v25.03c0,1.29-1.04,2.33-2.33,2.33h-23.65c-1.29,0-2.33,1.04-2.33,2.33Z"/>
          <path class="cls-1" d="M100.7,552.24h0c0-1.29-1.04-2.33-2.33-2.33h-23.65c-1.29,0-2.33-1.04-2.33-2.33v-22.72c0-1.29,1.04-2.33,2.33-2.33h29.19c1.29,0,2.33,1.04,2.33,2.33v22.72c0,1.29,1.04,2.33,2.33,2.33h0c1.29,0,2.33-1.04,2.33-2.33v-22.72c0-1.29,1.04-2.33,2.33-2.33h24.54c1.29,0,2.33,1.04,2.33,2.33v66.38c0,1.29-1.04,2.33-2.33,2.33h-53.75c-4.55-4.55-7.09-7.09-11.64-11.64v-25.03c0-1.29,1.04-2.33,2.33-2.33h23.65c1.29,0,2.33-1.04,2.33-2.33Z"/>
          <rect class="cls-2" x="96.39" y="474.26" width="19.72" height="19.72" transform="translate(-311.2 216.92) rotate(-45)"/>
          <rect class="cls-2" x="24" y="548.2" width="19.72" height="19.72" transform="translate(-384.69 187.39) rotate(-45)"/>
        </g>
      </g>
      <g id="_Grid_Repeat_-26" data-name="&amp;lt;Grid Repeat&amp;gt;">
        <g>
          <path class="cls-1" d="M184.07,489.93h0c0,1.29,1.04,2.33,2.33,2.33h23.65c1.29,0,2.33,1.04,2.33,2.33v22.72c0,1.29-1.04,2.33-2.33,2.33h-29.19c-1.29,0-2.33-1.04-2.33-2.33v-22.72c0-1.29-1.04-2.33-2.33-2.33h0c-1.29,0-2.33,1.04-2.33,2.33v22.72c0,1.29-1.04,2.33-2.33,2.33h-24.54c-1.29,0-2.33-1.04-2.33-2.33v-66.38c0-1.29,1.04-2.33,2.33-2.33h53.75l11.64,11.64v25.03c0,1.29-1.04,2.33-2.33,2.33h-23.65c-1.29,0-2.33,1.04-2.33,2.33Z"/>
          <path class="cls-1" d="M245.36,552.24h0c0-1.29-1.04-2.33-2.33-2.33h-23.65c-1.29,0-2.33-1.04-2.33-2.33v-22.72c0-1.29,1.04-2.33,2.33-2.33h29.19c1.29,0,2.33,1.04,2.33,2.33v22.72c0,1.29,1.04,2.33,2.33,2.33h0c1.29,0,2.33-1.04,2.33-2.33v-22.72c0-1.29,1.04-2.33,2.33-2.33h24.54c1.29,0,2.33,1.04,2.33,2.33v66.38c0,1.29-1.04,2.33-2.33,2.33h-53.75c-4.55-4.55-7.09-7.09-11.64-11.64v-25.03c0-1.29,1.04-2.33,2.33-2.33h23.65c1.29,0,2.33-1.04,2.33-2.33Z"/>
          <rect class="cls-2" x="241.05" y="474.26" width="19.72" height="19.72" transform="translate(-268.83 319.22) rotate(-45)"/>
          <rect class="cls-2" x="168.67" y="548.2" width="19.72" height="19.72" transform="translate(-342.32 289.69) rotate(-45)"/>
        </g>
      </g>
      <g id="_Grid_Repeat_-27" data-name="&amp;lt;Grid Repeat&amp;gt;">
        <g>
          <path class="cls-1" d="M328.73,489.93h0c0,1.29,1.04,2.33,2.33,2.33h23.65c1.29,0,2.33,1.04,2.33,2.33v22.72c0,1.29-1.04,2.33-2.33,2.33h-29.19c-1.29,0-2.33-1.04-2.33-2.33v-22.72c0-1.29-1.04-2.33-2.33-2.33h0c-1.29,0-2.33,1.04-2.33,2.33v22.72c0,1.29-1.04,2.33-2.33,2.33h-24.54c-1.29,0-2.33-1.04-2.33-2.33v-66.38c0-1.29,1.04-2.33,2.33-2.33h53.75l11.64,11.64v25.03c0,1.29-1.04,2.33-2.33,2.33h-23.65c-1.29,0-2.33,1.04-2.33,2.33Z"/>
          <path class="cls-1" d="M390.02,552.24h0c0-1.29-1.04-2.33-2.33-2.33h-23.65c-1.29,0-2.33-1.04-2.33-2.33v-22.72c0-1.29,1.04-2.33,2.33-2.33h29.19c1.29,0,2.33,1.04,2.33,2.33v22.72c0,1.29,1.04,2.33,2.33,2.33h0c1.29,0,2.33-1.04,2.33-2.33v-22.72c0-1.29,1.04-2.33,2.33-2.33h24.54c1.29,0,2.33,1.04,2.33,2.33v66.38c0,1.29-1.04,2.33-2.33,2.33h-53.75c-4.55-4.55-7.09-7.09-11.64-11.64v-25.03c0-1.29,1.04-2.33,2.33-2.33h23.65c1.29,0,2.33-1.04,2.33-2.33Z"/>
          <rect class="cls-2" x="385.71" y="474.26" width="19.72" height="19.72" transform="translate(-226.46 421.51) rotate(-45)"/>
          <rect class="cls-2" x="313.33" y="548.2" width="19.72" height="19.72" transform="translate(-299.95 391.98) rotate(-45)"/>
        </g>
      </g>
      <g id="_Grid_Repeat_-28" data-name="&amp;lt;Grid Repeat&amp;gt;">
        <g>
          <path class="cls-1" d="M473.4,489.93h0c0,1.29,1.04,2.33,2.33,2.33h23.65c1.29,0,2.33,1.04,2.33,2.33v22.72c0,1.29-1.04,2.33-2.33,2.33h-29.19c-1.29,0-2.33-1.04-2.33-2.33v-22.72c0-1.29-1.04-2.33-2.33-2.33h0c-1.29,0-2.33,1.04-2.33,2.33v22.72c0,1.29-1.04,2.33-2.33,2.33h-24.54c-1.29,0-2.33-1.04-2.33-2.33v-66.38c0-1.29,1.04-2.33,2.33-2.33h53.75l11.64,11.64v25.03c0,1.29-1.04,2.33-2.33,2.33h-23.65c-1.29,0-2.33,1.04-2.33,2.33Z"/>
          <path class="cls-1" d="M534.68,552.24h0c0-1.29-1.04-2.33-2.33-2.33h-23.65c-1.29,0-2.33-1.04-2.33-2.33v-22.72c0-1.29,1.04-2.33,2.33-2.33h29.19c1.29,0,2.33,1.04,2.33,2.33v22.72c0,1.29,1.04,2.33,2.33,2.33h0c1.29,0,2.33-1.04,2.33-2.33v-22.72c0-1.29,1.04-2.33,2.33-2.33h24.54c1.29,0,2.33,1.04,2.33,2.33v66.38c0,1.29-1.04,2.33-2.33,2.33h-53.75c-4.55-4.55-7.09-7.09-11.64-11.64v-25.03c0-1.29,1.04-2.33,2.33-2.33h23.65c1.29,0,2.33-1.04,2.33-2.33Z"/>
          <rect class="cls-2" x="530.38" y="474.26" width="19.72" height="19.72" transform="translate(-184.09 523.8) rotate(-45)"/>
          <rect class="cls-2" x="457.99" y="548.2" width="19.72" height="19.72" transform="translate(-257.58 494.27) rotate(-45)"/>
        </g>
      </g>
      <g id="_Grid_Repeat_-29" data-name="&amp;lt;Grid Repeat&amp;gt;">
        <g>
          <path class="cls-1" d="M618.06,489.93h0c0,1.29,1.04,2.33,2.33,2.33h23.65c1.29,0,2.33,1.04,2.33,2.33v22.72c0,1.29-1.04,2.33-2.33,2.33h-29.19c-1.29,0-2.33-1.04-2.33-2.33v-22.72c0-1.29-1.04-2.33-2.33-2.33h0c-1.29,0-2.33,1.04-2.33,2.33v22.72c0,1.29-1.04,2.33-2.33,2.33h-24.54c-1.29,0-2.33-1.04-2.33-2.33v-66.38c0-1.29,1.04-2.33,2.33-2.33h53.75l11.64,11.64v25.03c0,1.29-1.04,2.33-2.33,2.33h-23.65c-1.29,0-2.33,1.04-2.33,2.33Z"/>
          <path class="cls-1" d="M679.35,552.24h0c0-1.29-1.04-2.33-2.33-2.33h-23.65c-1.29,0-2.33-1.04-2.33-2.33v-22.72c0-1.29,1.04-2.33,2.33-2.33h29.19c1.29,0,2.33,1.04,2.33,2.33v22.72c0,1.29,1.04,2.33,2.33,2.33h0c1.29,0,2.33-1.04,2.33-2.33v-22.72c0-1.29,1.04-2.33,2.33-2.33h24.54c1.29,0,2.33,1.04,2.33,2.33v66.38c0,1.29-1.04,2.33-2.33,2.33h-53.75c-4.55-4.55-7.09-7.09-11.64-11.64v-25.03c0-1.29,1.04-2.33,2.33-2.33h23.65c1.29,0,2.33-1.04,2.33-2.33Z"/>
          <rect class="cls-2" x="675.04" y="474.26" width="19.72" height="19.72" transform="translate(-141.72 626.09) rotate(-45)"/>
          <rect class="cls-2" x="602.65" y="548.2" width="19.72" height="19.72" transform="translate(-215.2 596.56) rotate(-45)"/>
        </g>
      </g>
      <g id="_Grid_Repeat_-30" data-name="&amp;lt;Grid Repeat&amp;gt;">
        <g>
          <path class="cls-1" d="M762.72,489.93h0c0,1.29,1.04,2.33,2.33,2.33h23.65c1.29,0,2.33,1.04,2.33,2.33v22.72c0,1.29-1.04,2.33-2.33,2.33h-29.19c-1.29,0-2.33-1.04-2.33-2.33v-22.72c0-1.29-1.04-2.33-2.33-2.33h0c-1.29,0-2.33,1.04-2.33,2.33v22.72c0,1.29-1.04,2.33-2.33,2.33h-24.54c-1.29,0-2.33-1.04-2.33-2.33v-66.38c0-1.29,1.04-2.33,2.33-2.33h53.75l11.64,11.64v25.03c0,1.29-1.04,2.33-2.33,2.33h-23.65c-1.29,0-2.33,1.04-2.33,2.33Z"/>
          <path class="cls-1" d="M824.01,552.24h0c0-1.29-1.04-2.33-2.33-2.33h-23.65c-1.29,0-2.33-1.04-2.33-2.33v-22.72c0-1.29,1.04-2.33,2.33-2.33h29.19c1.29,0,2.33,1.04,2.33,2.33v22.72c0,1.29,1.04,2.33,2.33,2.33h0c1.29,0,2.33-1.04,2.33-2.33v-22.72c0-1.29,1.04-2.33,2.33-2.33h24.54c1.29,0,2.33,1.04,2.33,2.33v66.38c0,1.29-1.04,2.33-2.33,2.33h-53.75c-4.55-4.55-7.09-7.09-11.64-11.64v-25.03c0-1.29,1.04-2.33,2.33-2.33h23.65c1.29,0,2.33-1.04,2.33-2.33Z"/>
          <rect class="cls-2" x="819.7" y="474.26" width="19.72" height="19.72" transform="translate(-99.35 728.38) rotate(-45)"/>
          <rect class="cls-2" x="747.31" y="548.2" width="19.72" height="19.72" transform="translate(-172.83 698.85) rotate(-45)"/>
        </g>
      </g>
      <g id="_Grid_Repeat_-31" data-name="&amp;lt;Grid Repeat&amp;gt;">
        <g>
          <path class="cls-1" d="M907.38,489.93h0c0,1.29,1.04,2.33,2.33,2.33h23.65c1.29,0,2.33,1.04,2.33,2.33v22.72c0,1.29-1.04,2.33-2.33,2.33h-29.19c-1.29,0-2.33-1.04-2.33-2.33v-22.72c0-1.29-1.04-2.33-2.33-2.33h0c-1.29,0-2.33,1.04-2.33,2.33v22.72c0,1.29-1.04,2.33-2.33,2.33h-24.54c-1.29,0-2.33-1.04-2.33-2.33v-66.38c0-1.29,1.04-2.33,2.33-2.33h53.75l11.64,11.64v25.03c0,1.29-1.04,2.33-2.33,2.33h-23.65c-1.29,0-2.33,1.04-2.33,2.33Z"/>
          <path class="cls-1" d="M968.67,552.24h0c0-1.29-1.04-2.33-2.33-2.33h-23.65c-1.29,0-2.33-1.04-2.33-2.33v-22.72c0-1.29,1.04-2.33,2.33-2.33h29.19c1.29,0,2.33,1.04,2.33,2.33v22.72c0,1.29,1.04,2.33,2.33,2.33h0c1.29,0,2.33-1.04,2.33-2.33v-22.72c0-1.29,1.04-2.33,2.33-2.33h24.54c1.29,0,2.33,1.04,2.33,2.33v66.38c0,1.29-1.04,2.33-2.33,2.33h-53.75c-4.55-4.55-7.09-7.09-11.64-11.64v-25.03c0-1.29,1.04-2.33,2.33-2.33h23.65c1.29,0,2.33-1.04,2.33-2.33Z"/>
          <rect class="cls-2" x="964.36" y="474.26" width="19.72" height="19.72" transform="translate(-56.98 830.67) rotate(-45)"/>
          <rect class="cls-2" x="891.98" y="548.2" width="19.72" height="19.72" transform="translate(-130.46 801.14) rotate(-45)"/>
        </g>
      </g>
      <g id="_Grid_Repeat_-32" data-name="&amp;lt;Grid Repeat&amp;gt;">
        <g>
          <path class="cls-1" d="M1052.04,489.93h0c0,1.29,1.04,2.33,2.33,2.33h23.65c1.29,0,2.33,1.04,2.33,2.33v22.72c0,1.29-1.04,2.33-2.33,2.33h-29.19c-1.29,0-2.33-1.04-2.33-2.33v-22.72c0-1.29-1.04-2.33-2.33-2.33h0c-1.29,0-2.33,1.04-2.33,2.33v22.72c0,1.29-1.04,2.33-2.33,2.33h-24.54c-1.29,0-2.33-1.04-2.33-2.33v-66.38c0-1.29,1.04-2.33,2.33-2.33h53.75l11.64,11.64v25.03c0,1.29-1.04,2.33-2.33,2.33h-23.65c-1.29,0-2.33,1.04-2.33,2.33Z"/>
          <rect class="cls-2" x="1036.64" y="548.2" width="19.72" height="19.72" transform="translate(-88.09 903.43) rotate(-45)"/>
        </g>
      </g>
      <g id="_Grid_Repeat_-33" data-name="&amp;lt;Grid Repeat&amp;gt;">
        <g>
          <path class="cls-1" d="M39.41,639.46h0c0,1.29,1.04,2.33,2.33,2.33h23.65c1.29,0,2.33,1.04,2.33,2.33v22.72c0,1.29-1.04,2.33-2.33,2.33h-29.19c-1.29,0-2.33-1.04-2.33-2.33v-22.72c0-1.29-1.04-2.33-2.33-2.33h0c-1.29,0-2.33,1.04-2.33,2.33v22.72c0,1.29-1.04,2.33-2.33,2.33H2.33C1.04,669.17,0,668.13,0,666.84v-66.38c0-1.29,1.04-2.33,2.33-2.33h53.75l11.64,11.64v25.03c0,1.29-1.04,2.33-2.33,2.33h-23.65c-1.29,0-2.33,1.04-2.33,2.33Z"/>
          <path class="cls-1" d="M100.7,701.78h0c0-1.29-1.04-2.33-2.33-2.33h-23.65c-1.29,0-2.33-1.04-2.33-2.33v-22.72c0-1.29,1.04-2.33,2.33-2.33h29.19c1.29,0,2.33,1.04,2.33,2.33v22.72c0,1.29,1.04,2.33,2.33,2.33h0c1.29,0,2.33-1.04,2.33-2.33v-22.72c0-1.29,1.04-2.33,2.33-2.33h24.54c1.29,0,2.33,1.04,2.33,2.33v66.38c0,1.29-1.04,2.33-2.33,2.33h-53.75c-4.55-4.55-7.09-7.09-11.64-11.64v-25.03c0-1.29,1.04-2.33,2.33-2.33h23.65c1.29,0,2.33-1.04,2.33-2.33Z"/>
          <rect class="cls-2" x="96.39" y="623.79" width="19.72" height="19.72" transform="translate(-416.94 260.72) rotate(-45)"/>
          <rect class="cls-2" x="24" y="697.73" width="19.72" height="19.72" transform="translate(-490.42 231.19) rotate(-45)"/>
        </g>
      </g>
      <g id="_Grid_Repeat_-34" data-name="&amp;lt;Grid Repeat&amp;gt;">
        <g>
          <path class="cls-1" d="M184.07,639.46h0c0,1.29,1.04,2.33,2.33,2.33h23.65c1.29,0,2.33,1.04,2.33,2.33v22.72c0,1.29-1.04,2.33-2.33,2.33h-29.19c-1.29,0-2.33-1.04-2.33-2.33v-22.72c0-1.29-1.04-2.33-2.33-2.33h0c-1.29,0-2.33,1.04-2.33,2.33v22.72c0,1.29-1.04,2.33-2.33,2.33h-24.54c-1.29,0-2.33-1.04-2.33-2.33v-66.38c0-1.29,1.04-2.33,2.33-2.33h53.75l11.64,11.64v25.03c0,1.29-1.04,2.33-2.33,2.33h-23.65c-1.29,0-2.33,1.04-2.33,2.33Z"/>
          <path class="cls-1" d="M245.36,701.78h0c0-1.29-1.04-2.33-2.33-2.33h-23.65c-1.29,0-2.33-1.04-2.33-2.33v-22.72c0-1.29,1.04-2.33,2.33-2.33h29.19c1.29,0,2.33,1.04,2.33,2.33v22.72c0,1.29,1.04,2.33,2.33,2.33h0c1.29,0,2.33-1.04,2.33-2.33v-22.72c0-1.29,1.04-2.33,2.33-2.33h24.54c1.29,0,2.33,1.04,2.33,2.33v66.38c0,1.29-1.04,2.33-2.33,2.33h-53.75c-4.55-4.55-7.09-7.09-11.64-11.64v-25.03c0-1.29,1.04-2.33,2.33-2.33h23.65c1.29,0,2.33-1.04,2.33-2.33Z"/>
          <rect class="cls-2" x="241.05" y="623.79" width="19.72" height="19.72" transform="translate(-374.57 363.01) rotate(-45)"/>
          <rect class="cls-2" x="168.67" y="697.73" width="19.72" height="19.72" transform="translate(-448.05 333.48) rotate(-45)"/>
        </g>
      </g>
      <g id="_Grid_Repeat_-35" data-name="&amp;lt;Grid Repeat&amp;gt;">
        <g>
          <path class="cls-1" d="M328.73,639.46h0c0,1.29,1.04,2.33,2.33,2.33h23.65c1.29,0,2.33,1.04,2.33,2.33v22.72c0,1.29-1.04,2.33-2.33,2.33h-29.19c-1.29,0-2.33-1.04-2.33-2.33v-22.72c0-1.29-1.04-2.33-2.33-2.33h0c-1.29,0-2.33,1.04-2.33,2.33v22.72c0,1.29-1.04,2.33-2.33,2.33h-24.54c-1.29,0-2.33-1.04-2.33-2.33v-66.38c0-1.29,1.04-2.33,2.33-2.33h53.75l11.64,11.64v25.03c0,1.29-1.04,2.33-2.33,2.33h-23.65c-1.29,0-2.33,1.04-2.33,2.33Z"/>
          <path class="cls-1" d="M390.02,701.78h0c0-1.29-1.04-2.33-2.33-2.33h-23.65c-1.29,0-2.33-1.04-2.33-2.33v-22.72c0-1.29,1.04-2.33,2.33-2.33h29.19c1.29,0,2.33,1.04,2.33,2.33v22.72c0,1.29,1.04,2.33,2.33,2.33h0c1.29,0,2.33-1.04,2.33-2.33v-22.72c0-1.29,1.04-2.33,2.33-2.33h24.54c1.29,0,2.33,1.04,2.33,2.33v66.38c0,1.29-1.04,2.33-2.33,2.33h-53.75c-4.55-4.55-7.09-7.09-11.64-11.64v-25.03c0-1.29,1.04-2.33,2.33-2.33h23.65c1.29,0,2.33-1.04,2.33-2.33Z"/>
          <rect class="cls-2" x="385.71" y="623.79" width="19.72" height="19.72" transform="translate(-332.2 465.3) rotate(-45)"/>
          <rect class="cls-2" x="313.33" y="697.73" width="19.72" height="19.72" transform="translate(-405.68 435.77) rotate(-45)"/>
        </g>
      </g>
      <g id="_Grid_Repeat_-36" data-name="&amp;lt;Grid Repeat&amp;gt;">
        <g>
          <path class="cls-1" d="M473.4,639.46h0c0,1.29,1.04,2.33,2.33,2.33h23.65c1.29,0,2.33,1.04,2.33,2.33v22.72c0,1.29-1.04,2.33-2.33,2.33h-29.19c-1.29,0-2.33-1.04-2.33-2.33v-22.72c0-1.29-1.04-2.33-2.33-2.33h0c-1.29,0-2.33,1.04-2.33,2.33v22.72c0,1.29-1.04,2.33-2.33,2.33h-24.54c-1.29,0-2.33-1.04-2.33-2.33v-66.38c0-1.29,1.04-2.33,2.33-2.33h53.75l11.64,11.64v25.03c0,1.29-1.04,2.33-2.33,2.33h-23.65c-1.29,0-2.33,1.04-2.33,2.33Z"/>
          <path class="cls-1" d="M534.68,701.78h0c0-1.29-1.04-2.33-2.33-2.33h-23.65c-1.29,0-2.33-1.04-2.33-2.33v-22.72c0-1.29,1.04-2.33,2.33-2.33h29.19c1.29,0,2.33,1.04,2.33,2.33v22.72c0,1.29,1.04,2.33,2.33,2.33h0c1.29,0,2.33-1.04,2.33-2.33v-22.72c0-1.29,1.04-2.33,2.33-2.33h24.54c1.29,0,2.33,1.04,2.33,2.33v66.38c0,1.29-1.04,2.33-2.33,2.33h-53.75c-4.55-4.55-7.09-7.09-11.64-11.64v-25.03c0-1.29,1.04-2.33,2.33-2.33h23.65c1.29,0,2.33-1.04,2.33-2.33Z"/>
          <rect class="cls-2" x="530.38" y="623.79" width="19.72" height="19.72" transform="translate(-289.83 567.6) rotate(-45)"/>
          <rect class="cls-2" x="457.99" y="697.73" width="19.72" height="19.72" transform="translate(-363.31 538.07) rotate(-45)"/>
        </g>
      </g>
      <g id="_Grid_Repeat_-37" data-name="&amp;lt;Grid Repeat&amp;gt;">
        <g>
          <path class="cls-1" d="M618.06,639.46h0c0,1.29,1.04,2.33,2.33,2.33h23.65c1.29,0,2.33,1.04,2.33,2.33v22.72c0,1.29-1.04,2.33-2.33,2.33h-29.19c-1.29,0-2.33-1.04-2.33-2.33v-22.72c0-1.29-1.04-2.33-2.33-2.33h0c-1.29,0-2.33,1.04-2.33,2.33v22.72c0,1.29-1.04,2.33-2.33,2.33h-24.54c-1.29,0-2.33-1.04-2.33-2.33v-66.38c0-1.29,1.04-2.33,2.33-2.33h53.75l11.64,11.64v25.03c0,1.29-1.04,2.33-2.33,2.33h-23.65c-1.29,0-2.33,1.04-2.33,2.33Z"/>
          <path class="cls-1" d="M679.35,701.78h0c0-1.29-1.04-2.33-2.33-2.33h-23.65c-1.29,0-2.33-1.04-2.33-2.33v-22.72c0-1.29,1.04-2.33,2.33-2.33h29.19c1.29,0,2.33,1.04,2.33,2.33v22.72c0,1.29,1.04,2.33,2.33,2.33h0c1.29,0,2.33-1.04,2.33-2.33v-22.72c0-1.29,1.04-2.33,2.33-2.33h24.54c1.29,0,2.33,1.04,2.33,2.33v66.38c0,1.29-1.04,2.33-2.33,2.33h-53.75c-4.55-4.55-7.09-7.09-11.64-11.64v-25.03c0-1.29,1.04-2.33,2.33-2.33h23.65c1.29,0,2.33-1.04,2.33-2.33Z"/>
          <rect class="cls-2" x="675.04" y="623.79" width="19.72" height="19.72" transform="translate(-247.46 669.89) rotate(-45)"/>
          <rect class="cls-2" x="602.65" y="697.73" width="19.72" height="19.72" transform="translate(-320.94 640.36) rotate(-45)"/>
        </g>
      </g>
      <g id="_Grid_Repeat_-38" data-name="&amp;lt;Grid Repeat&amp;gt;">
        <g>
          <path class="cls-1" d="M762.72,639.46h0c0,1.29,1.04,2.33,2.33,2.33h23.65c1.29,0,2.33,1.04,2.33,2.33v22.72c0,1.29-1.04,2.33-2.33,2.33h-29.19c-1.29,0-2.33-1.04-2.33-2.33v-22.72c0-1.29-1.04-2.33-2.33-2.33h0c-1.29,0-2.33,1.04-2.33,2.33v22.72c0,1.29-1.04,2.33-2.33,2.33h-24.54c-1.29,0-2.33-1.04-2.33-2.33v-66.38c0-1.29,1.04-2.33,2.33-2.33h53.75l11.64,11.64v25.03c0,1.29-1.04,2.33-2.33,2.33h-23.65c-1.29,0-2.33,1.04-2.33,2.33Z"/>
          <path class="cls-1" d="M824.01,701.78h0c0-1.29-1.04-2.33-2.33-2.33h-23.65c-1.29,0-2.33-1.04-2.33-2.33v-22.72c0-1.29,1.04-2.33,2.33-2.33h29.19c1.29,0,2.33,1.04,2.33,2.33v22.72c0,1.29,1.04,2.33,2.33,2.33h0c1.29,0,2.33-1.04,2.33-2.33v-22.72c0-1.29,1.04-2.33,2.33-2.33h24.54c1.29,0,2.33,1.04,2.33,2.33v66.38c0,1.29-1.04,2.33-2.33,2.33h-53.75c-4.55-4.55-7.09-7.09-11.64-11.64v-25.03c0-1.29,1.04-2.33,2.33-2.33h23.65c1.29,0,2.33-1.04,2.33-2.33Z"/>
          <rect class="cls-2" x="819.7" y="623.79" width="19.72" height="19.72" transform="translate(-205.09 772.18) rotate(-45)"/>
          <rect class="cls-2" x="747.31" y="697.73" width="19.72" height="19.72" transform="translate(-278.57 742.65) rotate(-45)"/>
        </g>
      </g>
      <g id="_Grid_Repeat_-39" data-name="&amp;lt;Grid Repeat&amp;gt;">
        <g>
          <path class="cls-1" d="M907.38,639.46h0c0,1.29,1.04,2.33,2.33,2.33h23.65c1.29,0,2.33,1.04,2.33,2.33v22.72c0,1.29-1.04,2.33-2.33,2.33h-29.19c-1.29,0-2.33-1.04-2.33-2.33v-22.72c0-1.29-1.04-2.33-2.33-2.33h0c-1.29,0-2.33,1.04-2.33,2.33v22.72c0,1.29-1.04,2.33-2.33,2.33h-24.54c-1.29,0-2.33-1.04-2.33-2.33v-66.38c0-1.29,1.04-2.33,2.33-2.33h53.75l11.64,11.64v25.03c0,1.29-1.04,2.33-2.33,2.33h-23.65c-1.29,0-2.33,1.04-2.33,2.33Z"/>
          <path class="cls-1" d="M968.67,701.78h0c0-1.29-1.04-2.33-2.33-2.33h-23.65c-1.29,0-2.33-1.04-2.33-2.33v-22.72c0-1.29,1.04-2.33,2.33-2.33h29.19c1.29,0,2.33,1.04,2.33,2.33v22.72c0,1.29,1.04,2.33,2.33,2.33h0c1.29,0,2.33-1.04,2.33-2.33v-22.72c0-1.29,1.04-2.33,2.33-2.33h24.54c1.29,0,2.33,1.04,2.33,2.33v66.38c0,1.29-1.04,2.33-2.33,2.33h-53.75c-4.55-4.55-7.09-7.09-11.64-11.64v-25.03c0-1.29,1.04-2.33,2.33-2.33h23.65c1.29,0,2.33-1.04,2.33-2.33Z"/>
          <rect class="cls-2" x="964.36" y="623.79" width="19.72" height="19.72" transform="translate(-162.72 874.47) rotate(-45)"/>
          <rect class="cls-2" x="891.98" y="697.73" width="19.72" height="19.72" transform="translate(-236.2 844.94) rotate(-45)"/>
        </g>
      </g>
      <g id="_Grid_Repeat_-40" data-name="&amp;lt;Grid Repeat&amp;gt;">
        <g>
          <path class="cls-1" d="M1052.04,639.46h0c0,1.29,1.04,2.33,2.33,2.33h23.65c1.29,0,2.33,1.04,2.33,2.33v22.72c0,1.29-1.04,2.33-2.33,2.33h-29.19c-1.29,0-2.33-1.04-2.33-2.33v-22.72c0-1.29-1.04-2.33-2.33-2.33h0c-1.29,0-2.33,1.04-2.33,2.33v22.72c0,1.29-1.04,2.33-2.33,2.33h-24.54c-1.29,0-2.33-1.04-2.33-2.33v-66.38c0-1.29,1.04-2.33,2.33-2.33h53.75l11.64,11.64v25.03c0,1.29-1.04,2.33-2.33,2.33h-23.65c-1.29,0-2.33,1.04-2.33,2.33Z"/>
          <rect class="cls-2" x="1036.64" y="697.73" width="19.72" height="19.72" transform="translate(-193.83 947.23) rotate(-45)"/>
        </g>
      </g>
      <g id="_Grid_Repeat_-41" data-name="&amp;lt;Grid Repeat&amp;gt;">
        <g>
          <path class="cls-1" d="M39.41,788.99h0c0,1.29,1.04,2.33,2.33,2.33h23.65c1.29,0,2.33,1.04,2.33,2.33v22.72c0,1.29-1.04,2.33-2.33,2.33h-29.19c-1.29,0-2.33-1.04-2.33-2.33v-22.72c0-1.29-1.04-2.33-2.33-2.33h0c-1.29,0-2.33,1.04-2.33,2.33v22.72c0,1.29-1.04,2.33-2.33,2.33H2.33C1.04,818.71,0,817.66,0,816.37v-66.38c0-1.29,1.04-2.33,2.33-2.33h53.75l11.64,11.64v25.03c0,1.29-1.04,2.33-2.33,2.33h-23.65c-1.29,0-2.33,1.04-2.33,2.33Z"/>
          <path class="cls-1" d="M100.7,851.31h0c0-1.29-1.04-2.33-2.33-2.33h-23.65c-1.29,0-2.33-1.04-2.33-2.33v-22.72c0-1.29,1.04-2.33,2.33-2.33h29.19c1.29,0,2.33,1.04,2.33,2.33v22.72c0,1.29,1.04,2.33,2.33,2.33h0c1.29,0,2.33-1.04,2.33-2.33v-22.72c0-1.29,1.04-2.33,2.33-2.33h24.54c1.29,0,2.33,1.04,2.33,2.33v66.38c0,1.29-1.04,2.33-2.33,2.33h-53.75c-4.55-4.55-7.09-7.09-11.64-11.64v-25.03c0-1.29,1.04-2.33,2.33-2.33h23.65c1.29,0,2.33-1.04,2.33-2.33Z"/>
          <rect class="cls-2" x="96.39" y="773.33" width="19.72" height="19.72" transform="translate(-522.68 304.52) rotate(-45)"/>
          <rect class="cls-2" x="24" y="847.26" width="19.72" height="19.72" transform="translate(-596.16 274.99) rotate(-45)"/>
        </g>
      </g>
      <g id="_Grid_Repeat_-42" data-name="&amp;lt;Grid Repeat&amp;gt;">
        <g>
          <path class="cls-1" d="M184.07,788.99h0c0,1.29,1.04,2.33,2.33,2.33h23.65c1.29,0,2.33,1.04,2.33,2.33v22.72c0,1.29-1.04,2.33-2.33,2.33h-29.19c-1.29,0-2.33-1.04-2.33-2.33v-22.72c0-1.29-1.04-2.33-2.33-2.33h0c-1.29,0-2.33,1.04-2.33,2.33v22.72c0,1.29-1.04,2.33-2.33,2.33h-24.54c-1.29,0-2.33-1.04-2.33-2.33v-66.38c0-1.29,1.04-2.33,2.33-2.33h53.75l11.64,11.64v25.03c0,1.29-1.04,2.33-2.33,2.33h-23.65c-1.29,0-2.33,1.04-2.33,2.33Z"/>
          <path class="cls-1" d="M245.36,851.31h0c0-1.29-1.04-2.33-2.33-2.33h-23.65c-1.29,0-2.33-1.04-2.33-2.33v-22.72c0-1.29,1.04-2.33,2.33-2.33h29.19c1.29,0,2.33,1.04,2.33,2.33v22.72c0,1.29,1.04,2.33,2.33,2.33h0c1.29,0,2.33-1.04,2.33-2.33v-22.72c0-1.29,1.04-2.33,2.33-2.33h24.54c1.29,0,2.33,1.04,2.33,2.33v66.38c0,1.29-1.04,2.33-2.33,2.33h-53.75c-4.55-4.55-7.09-7.09-11.64-11.64v-25.03c0-1.29,1.04-2.33,2.33-2.33h23.65c1.29,0,2.33-1.04,2.33-2.33Z"/>
          <rect class="cls-2" x="241.05" y="773.33" width="19.72" height="19.72" transform="translate(-480.31 406.81) rotate(-45)"/>
          <rect class="cls-2" x="168.67" y="847.26" width="19.72" height="19.72" transform="translate(-553.79 377.28) rotate(-45)"/>
        </g>
      </g>
      <g id="_Grid_Repeat_-43" data-name="&amp;lt;Grid Repeat&amp;gt;">
        <g>
          <path class="cls-1" d="M328.73,788.99h0c0,1.29,1.04,2.33,2.33,2.33h23.65c1.29,0,2.33,1.04,2.33,2.33v22.72c0,1.29-1.04,2.33-2.33,2.33h-29.19c-1.29,0-2.33-1.04-2.33-2.33v-22.72c0-1.29-1.04-2.33-2.33-2.33h0c-1.29,0-2.33,1.04-2.33,2.33v22.72c0,1.29-1.04,2.33-2.33,2.33h-24.54c-1.29,0-2.33-1.04-2.33-2.33v-66.38c0-1.29,1.04-2.33,2.33-2.33h53.75l11.64,11.64v25.03c0,1.29-1.04,2.33-2.33,2.33h-23.65c-1.29,0-2.33,1.04-2.33,2.33Z"/>
          <path class="cls-1" d="M390.02,851.31h0c0-1.29-1.04-2.33-2.33-2.33h-23.65c-1.29,0-2.33-1.04-2.33-2.33v-22.72c0-1.29,1.04-2.33,2.33-2.33h29.19c1.29,0,2.33,1.04,2.33,2.33v22.72c0,1.29,1.04,2.33,2.33,2.33h0c1.29,0,2.33-1.04,2.33-2.33v-22.72c0-1.29,1.04-2.33,2.33-2.33h24.54c1.29,0,2.33,1.04,2.33,2.33v66.38c0,1.29-1.04,2.33-2.33,2.33h-53.75c-4.55-4.55-7.09-7.09-11.64-11.64v-25.03c0-1.29,1.04-2.33,2.33-2.33h23.65c1.29,0,2.33-1.04,2.33-2.33Z"/>
          <rect class="cls-2" x="385.71" y="773.33" width="19.72" height="19.72" transform="translate(-437.93 509.1) rotate(-45)"/>
          <rect class="cls-2" x="313.33" y="847.26" width="19.72" height="19.72" transform="translate(-511.42 479.57) rotate(-45)"/>
        </g>
      </g>
      <g id="_Grid_Repeat_-44" data-name="&amp;lt;Grid Repeat&amp;gt;">
        <g>
          <path class="cls-1" d="M473.4,788.99h0c0,1.29,1.04,2.33,2.33,2.33h23.65c1.29,0,2.33,1.04,2.33,2.33v22.72c0,1.29-1.04,2.33-2.33,2.33h-29.19c-1.29,0-2.33-1.04-2.33-2.33v-22.72c0-1.29-1.04-2.33-2.33-2.33h0c-1.29,0-2.33,1.04-2.33,2.33v22.72c0,1.29-1.04,2.33-2.33,2.33h-24.54c-1.29,0-2.33-1.04-2.33-2.33v-66.38c0-1.29,1.04-2.33,2.33-2.33h53.75l11.64,11.64v25.03c0,1.29-1.04,2.33-2.33,2.33h-23.65c-1.29,0-2.33,1.04-2.33,2.33Z"/>
          <path class="cls-1" d="M534.68,851.31h0c0-1.29-1.04-2.33-2.33-2.33h-23.65c-1.29,0-2.33-1.04-2.33-2.33v-22.72c0-1.29,1.04-2.33,2.33-2.33h29.19c1.29,0,2.33,1.04,2.33,2.33v22.72c0,1.29,1.04,2.33,2.33,2.33h0c1.29,0,2.33-1.04,2.33-2.33v-22.72c0-1.29,1.04-2.33,2.33-2.33h24.54c1.29,0,2.33,1.04,2.33,2.33v66.38c0,1.29-1.04,2.33-2.33,2.33h-53.75c-4.55-4.55-7.09-7.09-11.64-11.64v-25.03c0-1.29,1.04-2.33,2.33-2.33h23.65c1.29,0,2.33-1.04,2.33-2.33Z"/>
          <rect class="cls-2" x="530.38" y="773.33" width="19.72" height="19.72" transform="translate(-395.56 611.39) rotate(-45)"/>
          <rect class="cls-2" x="457.99" y="847.26" width="19.72" height="19.72" transform="translate(-469.05 581.86) rotate(-45)"/>
        </g>
      </g>
      <g id="_Grid_Repeat_-45" data-name="&amp;lt;Grid Repeat&amp;gt;">
        <g>
          <path class="cls-1" d="M618.06,788.99h0c0,1.29,1.04,2.33,2.33,2.33h23.65c1.29,0,2.33,1.04,2.33,2.33v22.72c0,1.29-1.04,2.33-2.33,2.33h-29.19c-1.29,0-2.33-1.04-2.33-2.33v-22.72c0-1.29-1.04-2.33-2.33-2.33h0c-1.29,0-2.33,1.04-2.33,2.33v22.72c0,1.29-1.04,2.33-2.33,2.33h-24.54c-1.29,0-2.33-1.04-2.33-2.33v-66.38c0-1.29,1.04-2.33,2.33-2.33h53.75l11.64,11.64v25.03c0,1.29-1.04,2.33-2.33,2.33h-23.65c-1.29,0-2.33,1.04-2.33,2.33Z"/>
          <path class="cls-1" d="M679.35,851.31h0c0-1.29-1.04-2.33-2.33-2.33h-23.65c-1.29,0-2.33-1.04-2.33-2.33v-22.72c0-1.29,1.04-2.33,2.33-2.33h29.19c1.29,0,2.33,1.04,2.33,2.33v22.72c0,1.29,1.04,2.33,2.33,2.33h0c1.29,0,2.33-1.04,2.33-2.33v-22.72c0-1.29,1.04-2.33,2.33-2.33h24.54c1.29,0,2.33,1.04,2.33,2.33v66.38c0,1.29-1.04,2.33-2.33,2.33h-53.75c-4.55-4.55-7.09-7.09-11.64-11.64v-25.03c0-1.29,1.04-2.33,2.33-2.33h23.65c1.29,0,2.33-1.04,2.33-2.33Z"/>
          <rect class="cls-2" x="675.04" y="773.33" width="19.72" height="19.72" transform="translate(-353.19 713.68) rotate(-45)"/>
          <rect class="cls-2" x="602.65" y="847.26" width="19.72" height="19.72" transform="translate(-426.68 684.15) rotate(-45)"/>
        </g>
      </g>
      <g id="_Grid_Repeat_-46" data-name="&amp;lt;Grid Repeat&amp;gt;">
        <g>
          <path class="cls-1" d="M762.72,788.99h0c0,1.29,1.04,2.33,2.33,2.33h23.65c1.29,0,2.33,1.04,2.33,2.33v22.72c0,1.29-1.04,2.33-2.33,2.33h-29.19c-1.29,0-2.33-1.04-2.33-2.33v-22.72c0-1.29-1.04-2.33-2.33-2.33h0c-1.29,0-2.33,1.04-2.33,2.33v22.72c0,1.29-1.04,2.33-2.33,2.33h-24.54c-1.29,0-2.33-1.04-2.33-2.33v-66.38c0-1.29,1.04-2.33,2.33-2.33h53.75l11.64,11.64v25.03c0,1.29-1.04,2.33-2.33,2.33h-23.65c-1.29,0-2.33,1.04-2.33,2.33Z"/>
          <path class="cls-1" d="M824.01,851.31h0c0-1.29-1.04-2.33-2.33-2.33h-23.65c-1.29,0-2.33-1.04-2.33-2.33v-22.72c0-1.29,1.04-2.33,2.33-2.33h29.19c1.29,0,2.33,1.04,2.33,2.33v22.72c0,1.29,1.04,2.33,2.33,2.33h0c1.29,0,2.33-1.04,2.33-2.33v-22.72c0-1.29,1.04-2.33,2.33-2.33h24.54c1.29,0,2.33,1.04,2.33,2.33v66.38c0,1.29-1.04,2.33-2.33,2.33h-53.75c-4.55-4.55-7.09-7.09-11.64-11.64v-25.03c0-1.29,1.04-2.33,2.33-2.33h23.65c1.29,0,2.33-1.04,2.33-2.33Z"/>
          <rect class="cls-2" x="819.7" y="773.33" width="19.72" height="19.72" transform="translate(-310.82 815.98) rotate(-45)"/>
          <rect class="cls-2" x="747.31" y="847.26" width="19.72" height="19.72" transform="translate(-384.31 786.45) rotate(-45)"/>
        </g>
      </g>
      <g id="_Grid_Repeat_-47" data-name="&amp;lt;Grid Repeat&amp;gt;">
        <g>
          <path class="cls-1" d="M907.38,788.99h0c0,1.29,1.04,2.33,2.33,2.33h23.65c1.29,0,2.33,1.04,2.33,2.33v22.72c0,1.29-1.04,2.33-2.33,2.33h-29.19c-1.29,0-2.33-1.04-2.33-2.33v-22.72c0-1.29-1.04-2.33-2.33-2.33h0c-1.29,0-2.33,1.04-2.33,2.33v22.72c0,1.29-1.04,2.33-2.33,2.33h-24.54c-1.29,0-2.33-1.04-2.33-2.33v-66.38c0-1.29,1.04-2.33,2.33-2.33h53.75l11.64,11.64v25.03c0,1.29-1.04,2.33-2.33,2.33h-23.65c-1.29,0-2.33,1.04-2.33,2.33Z"/>
          <path class="cls-1" d="M968.67,851.31h0c0-1.29-1.04-2.33-2.33-2.33h-23.65c-1.29,0-2.33-1.04-2.33-2.33v-22.72c0-1.29,1.04-2.33,2.33-2.33h29.19c1.29,0,2.33,1.04,2.33,2.33v22.72c0,1.29,1.04,2.33,2.33,2.33h0c1.29,0,2.33-1.04,2.33-2.33v-22.72c0-1.29,1.04-2.33,2.33-2.33h24.54c1.29,0,2.33,1.04,2.33,2.33v66.38c0,1.29-1.04,2.33-2.33,2.33h-53.75c-4.55-4.55-7.09-7.09-11.64-11.64v-25.03c0-1.29,1.04-2.33,2.33-2.33h23.65c1.29,0,2.33-1.04,2.33-2.33Z"/>
          <rect class="cls-2" x="964.36" y="773.33" width="19.72" height="19.72" transform="translate(-268.45 918.27) rotate(-45)"/>
          <rect class="cls-2" x="891.98" y="847.26" width="19.72" height="19.72" transform="translate(-341.93 888.74) rotate(-45)"/>
        </g>
      </g>
      <g id="_Grid_Repeat_-48" data-name="&amp;lt;Grid Repeat&amp;gt;">
        <g>
          <path class="cls-1" d="M1052.04,788.99h0c0,1.29,1.04,2.33,2.33,2.33h23.65c1.29,0,2.33,1.04,2.33,2.33v22.72c0,1.29-1.04,2.33-2.33,2.33h-29.19c-1.29,0-2.33-1.04-2.33-2.33v-22.72c0-1.29-1.04-2.33-2.33-2.33h0c-1.29,0-2.33,1.04-2.33,2.33v22.72c0,1.29-1.04,2.33-2.33,2.33h-24.54c-1.29,0-2.33-1.04-2.33-2.33v-66.38c0-1.29,1.04-2.33,2.33-2.33h53.75l11.64,11.64v25.03c0,1.29-1.04,2.33-2.33,2.33h-23.65c-1.29,0-2.33,1.04-2.33,2.33Z"/>
          <rect class="cls-2" x="1036.64" y="847.26" width="19.72" height="19.72" transform="translate(-299.56 991.03) rotate(-45)"/>
        </g>
      </g>
      <g id="_Grid_Repeat_-49" data-name="&amp;lt;Grid Repeat&amp;gt;">
        <g>
          <path class="cls-1" d="M39.41,938.53h0c0,1.29,1.04,2.33,2.33,2.33h23.65c1.29,0,2.33,1.04,2.33,2.33v22.72c0,1.29-1.04,2.33-2.33,2.33h-29.19c-1.29,0-2.33-1.04-2.33-2.33v-22.72c0-1.29-1.04-2.33-2.33-2.33h0c-1.29,0-2.33,1.04-2.33,2.33v22.72c0,1.29-1.04,2.33-2.33,2.33H2.33C1.04,968.24,0,967.19,0,965.91v-66.38c0-1.29,1.04-2.33,2.33-2.33h53.75l11.64,11.64v25.03c0,1.29-1.04,2.33-2.33,2.33h-23.65c-1.29,0-2.33,1.04-2.33,2.33Z"/>
          <path class="cls-1" d="M100.7,1000.84h0c0-1.29-1.04-2.33-2.33-2.33h-23.65c-1.29,0-2.33-1.04-2.33-2.33v-22.72c0-1.29,1.04-2.33,2.33-2.33h29.19c1.29,0,2.33,1.04,2.33,2.33v22.72c0,1.29,1.04,2.33,2.33,2.33h0c1.29,0,2.33-1.04,2.33-2.33v-22.72c0-1.29,1.04-2.33,2.33-2.33h24.54c1.29,0,2.33,1.04,2.33,2.33v66.38c0,1.29-1.04,2.33-2.33,2.33h-53.75c-4.55-4.55-7.09-7.09-11.64-11.64v-25.03c0-1.29,1.04-2.33,2.33-2.33h23.65c1.29,0,2.33-1.04,2.33-2.33Z"/>
          <rect class="cls-2" x="96.39" y="922.86" width="19.72" height="19.72" transform="translate(-628.41 348.31) rotate(-45)"/>
          <rect class="cls-2" x="24" y="996.79" width="19.72" height="19.72" transform="translate(-701.89 318.79) rotate(-45)"/>
        </g>
      </g>
      <g id="_Grid_Repeat_-50" data-name="&amp;lt;Grid Repeat&amp;gt;">
        <g>
          <path class="cls-1" d="M184.07,938.53h0c0,1.29,1.04,2.33,2.33,2.33h23.65c1.29,0,2.33,1.04,2.33,2.33v22.72c0,1.29-1.04,2.33-2.33,2.33h-29.19c-1.29,0-2.33-1.04-2.33-2.33v-22.72c0-1.29-1.04-2.33-2.33-2.33h0c-1.29,0-2.33,1.04-2.33,2.33v22.72c0,1.29-1.04,2.33-2.33,2.33h-24.54c-1.29,0-2.33-1.04-2.33-2.33v-66.38c0-1.29,1.04-2.33,2.33-2.33h53.75l11.64,11.64v25.03c0,1.29-1.04,2.33-2.33,2.33h-23.65c-1.29,0-2.33,1.04-2.33,2.33Z"/>
          <path class="cls-1" d="M245.36,1000.84h0c0-1.29-1.04-2.33-2.33-2.33h-23.65c-1.29,0-2.33-1.04-2.33-2.33v-22.72c0-1.29,1.04-2.33,2.33-2.33h29.19c1.29,0,2.33,1.04,2.33,2.33v22.72c0,1.29,1.04,2.33,2.33,2.33h0c1.29,0,2.33-1.04,2.33-2.33v-22.72c0-1.29,1.04-2.33,2.33-2.33h24.54c1.29,0,2.33,1.04,2.33,2.33v66.38c0,1.29-1.04,2.33-2.33,2.33h-53.75c-4.55-4.55-7.09-7.09-11.64-11.64v-25.03c0-1.29,1.04-2.33,2.33-2.33h23.65c1.29,0,2.33-1.04,2.33-2.33Z"/>
          <rect class="cls-2" x="241.05" y="922.86" width="19.72" height="19.72" transform="translate(-586.04 450.61) rotate(-45)"/>
          <rect class="cls-2" x="168.67" y="996.79" width="19.72" height="19.72" transform="translate(-659.52 421.08) rotate(-45)"/>
        </g>
      </g>
      <g id="_Grid_Repeat_-51" data-name="&amp;lt;Grid Repeat&amp;gt;">
        <g>
          <path class="cls-1" d="M328.73,938.53h0c0,1.29,1.04,2.33,2.33,2.33h23.65c1.29,0,2.33,1.04,2.33,2.33v22.72c0,1.29-1.04,2.33-2.33,2.33h-29.19c-1.29,0-2.33-1.04-2.33-2.33v-22.72c0-1.29-1.04-2.33-2.33-2.33h0c-1.29,0-2.33,1.04-2.33,2.33v22.72c0,1.29-1.04,2.33-2.33,2.33h-24.54c-1.29,0-2.33-1.04-2.33-2.33v-66.38c0-1.29,1.04-2.33,2.33-2.33h53.75l11.64,11.64v25.03c0,1.29-1.04,2.33-2.33,2.33h-23.65c-1.29,0-2.33,1.04-2.33,2.33Z"/>
          <path class="cls-1" d="M390.02,1000.84h0c0-1.29-1.04-2.33-2.33-2.33h-23.65c-1.29,0-2.33-1.04-2.33-2.33v-22.72c0-1.29,1.04-2.33,2.33-2.33h29.19c1.29,0,2.33,1.04,2.33,2.33v22.72c0,1.29,1.04,2.33,2.33,2.33h0c1.29,0,2.33-1.04,2.33-2.33v-22.72c0-1.29,1.04-2.33,2.33-2.33h24.54c1.29,0,2.33,1.04,2.33,2.33v66.38c0,1.29-1.04,2.33-2.33,2.33h-53.75c-4.55-4.55-7.09-7.09-11.64-11.64v-25.03c0-1.29,1.04-2.33,2.33-2.33h23.65c1.29,0,2.33-1.04,2.33-2.33Z"/>
          <rect class="cls-2" x="385.71" y="922.86" width="19.72" height="19.72" transform="translate(-543.67 552.9) rotate(-45)"/>
          <rect class="cls-2" x="313.33" y="996.79" width="19.72" height="19.72" transform="translate(-617.15 523.37) rotate(-45)"/>
        </g>
      </g>
      <g id="_Grid_Repeat_-52" data-name="&amp;lt;Grid Repeat&amp;gt;">
        <g>
          <path class="cls-1" d="M473.4,938.53h0c0,1.29,1.04,2.33,2.33,2.33h23.65c1.29,0,2.33,1.04,2.33,2.33v22.72c0,1.29-1.04,2.33-2.33,2.33h-29.19c-1.29,0-2.33-1.04-2.33-2.33v-22.72c0-1.29-1.04-2.33-2.33-2.33h0c-1.29,0-2.33,1.04-2.33,2.33v22.72c0,1.29-1.04,2.33-2.33,2.33h-24.54c-1.29,0-2.33-1.04-2.33-2.33v-66.38c0-1.29,1.04-2.33,2.33-2.33h53.75l11.64,11.64v25.03c0,1.29-1.04,2.33-2.33,2.33h-23.65c-1.29,0-2.33,1.04-2.33,2.33Z"/>
          <path class="cls-1" d="M534.68,1000.84h0c0-1.29-1.04-2.33-2.33-2.33h-23.65c-1.29,0-2.33-1.04-2.33-2.33v-22.72c0-1.29,1.04-2.33,2.33-2.33h29.19c1.29,0,2.33,1.04,2.33,2.33v22.72c0,1.29,1.04,2.33,2.33,2.33h0c1.29,0,2.33-1.04,2.33-2.33v-22.72c0-1.29,1.04-2.33,2.33-2.33h24.54c1.29,0,2.33,1.04,2.33,2.33v66.38c0,1.29-1.04,2.33-2.33,2.33h-53.75c-4.55-4.55-7.09-7.09-11.64-11.64v-25.03c0-1.29,1.04-2.33,2.33-2.33h23.65c1.29,0,2.33-1.04,2.33-2.33Z"/>
          <rect class="cls-2" x="530.38" y="922.86" width="19.72" height="19.72" transform="translate(-501.3 655.19) rotate(-45)"/>
          <rect class="cls-2" x="457.99" y="996.79" width="19.72" height="19.72" transform="translate(-574.78 625.66) rotate(-45)"/>
        </g>
      </g>
      <g id="_Grid_Repeat_-53" data-name="&amp;lt;Grid Repeat&amp;gt;">
        <g>
          <path class="cls-1" d="M618.06,938.53h0c0,1.29,1.04,2.33,2.33,2.33h23.65c1.29,0,2.33,1.04,2.33,2.33v22.72c0,1.29-1.04,2.33-2.33,2.33h-29.19c-1.29,0-2.33-1.04-2.33-2.33v-22.72c0-1.29-1.04-2.33-2.33-2.33h0c-1.29,0-2.33,1.04-2.33,2.33v22.72c0,1.29-1.04,2.33-2.33,2.33h-24.54c-1.29,0-2.33-1.04-2.33-2.33v-66.38c0-1.29,1.04-2.33,2.33-2.33h53.75l11.64,11.64v25.03c0,1.29-1.04,2.33-2.33,2.33h-23.65c-1.29,0-2.33,1.04-2.33,2.33Z"/>
          <path class="cls-1" d="M679.35,1000.84h0c0-1.29-1.04-2.33-2.33-2.33h-23.65c-1.29,0-2.33-1.04-2.33-2.33v-22.72c0-1.29,1.04-2.33,2.33-2.33h29.19c1.29,0,2.33,1.04,2.33,2.33v22.72c0,1.29,1.04,2.33,2.33,2.33h0c1.29,0,2.33-1.04,2.33-2.33v-22.72c0-1.29,1.04-2.33,2.33-2.33h24.54c1.29,0,2.33,1.04,2.33,2.33v66.38c0,1.29-1.04,2.33-2.33,2.33h-53.75c-4.55-4.55-7.09-7.09-11.64-11.64v-25.03c0-1.29,1.04-2.33,2.33-2.33h23.65c1.29,0,2.33-1.04,2.33-2.33Z"/>
          <rect class="cls-2" x="675.04" y="922.86" width="19.72" height="19.72" transform="translate(-458.93 757.48) rotate(-45)"/>
          <rect class="cls-2" x="602.65" y="996.79" width="19.72" height="19.72" transform="translate(-532.41 727.95) rotate(-45)"/>
        </g>
      </g>
      <g id="_Grid_Repeat_-54" data-name="&amp;lt;Grid Repeat&amp;gt;">
        <g>
          <path class="cls-1" d="M762.72,938.53h0c0,1.29,1.04,2.33,2.33,2.33h23.65c1.29,0,2.33,1.04,2.33,2.33v22.72c0,1.29-1.04,2.33-2.33,2.33h-29.19c-1.29,0-2.33-1.04-2.33-2.33v-22.72c0-1.29-1.04-2.33-2.33-2.33h0c-1.29,0-2.33,1.04-2.33,2.33v22.72c0,1.29-1.04,2.33-2.33,2.33h-24.54c-1.29,0-2.33-1.04-2.33-2.33v-66.38c0-1.29,1.04-2.33,2.33-2.33h53.75l11.64,11.64v25.03c0,1.29-1.04,2.33-2.33,2.33h-23.65c-1.29,0-2.33,1.04-2.33,2.33Z"/>
          <path class="cls-1" d="M824.01,1000.84h0c0-1.29-1.04-2.33-2.33-2.33h-23.65c-1.29,0-2.33-1.04-2.33-2.33v-22.72c0-1.29,1.04-2.33,2.33-2.33h29.19c1.29,0,2.33,1.04,2.33,2.33v22.72c0,1.29,1.04,2.33,2.33,2.33h0c1.29,0,2.33-1.04,2.33-2.33v-22.72c0-1.29,1.04-2.33,2.33-2.33h24.54c1.29,0,2.33,1.04,2.33,2.33v66.38c0,1.29-1.04,2.33-2.33,2.33h-53.75c-4.55-4.55-7.09-7.09-11.64-11.64v-25.03c0-1.29,1.04-2.33,2.33-2.33h23.65c1.29,0,2.33-1.04,2.33-2.33Z"/>
          <rect class="cls-2" x="819.7" y="922.86" width="19.72" height="19.72" transform="translate(-416.56 859.77) rotate(-45)"/>
          <rect class="cls-2" x="747.31" y="996.79" width="19.72" height="19.72" transform="translate(-490.04 830.24) rotate(-45)"/>
        </g>
      </g>
      <g id="_Grid_Repeat_-55" data-name="&amp;lt;Grid Repeat&amp;gt;">
        <g>
          <path class="cls-1" d="M907.38,938.53h0c0,1.29,1.04,2.33,2.33,2.33h23.65c1.29,0,2.33,1.04,2.33,2.33v22.72c0,1.29-1.04,2.33-2.33,2.33h-29.19c-1.29,0-2.33-1.04-2.33-2.33v-22.72c0-1.29-1.04-2.33-2.33-2.33h0c-1.29,0-2.33,1.04-2.33,2.33v22.72c0,1.29-1.04,2.33-2.33,2.33h-24.54c-1.29,0-2.33-1.04-2.33-2.33v-66.38c0-1.29,1.04-2.33,2.33-2.33h53.75l11.64,11.64v25.03c0,1.29-1.04,2.33-2.33,2.33h-23.65c-1.29,0-2.33,1.04-2.33,2.33Z"/>
          <path class="cls-1" d="M968.67,1000.84h0c0-1.29-1.04-2.33-2.33-2.33h-23.65c-1.29,0-2.33-1.04-2.33-2.33v-22.72c0-1.29,1.04-2.33,2.33-2.33h29.19c1.29,0,2.33,1.04,2.33,2.33v22.72c0,1.29,1.04,2.33,2.33,2.33h0c1.29,0,2.33-1.04,2.33-2.33v-22.72c0-1.29,1.04-2.33,2.33-2.33h24.54c1.29,0,2.33,1.04,2.33,2.33v66.38c0,1.29-1.04,2.33-2.33,2.33h-53.75c-4.55-4.55-7.09-7.09-11.64-11.64v-25.03c0-1.29,1.04-2.33,2.33-2.33h23.65c1.29,0,2.33-1.04,2.33-2.33Z"/>
          <rect class="cls-2" x="964.36" y="922.86" width="19.72" height="19.72" transform="translate(-374.19 962.06) rotate(-45)"/>
          <rect class="cls-2" x="891.98" y="996.79" width="19.72" height="19.72" transform="translate(-447.67 932.53) rotate(-45)"/>
        </g>
      </g>
      <g id="_Grid_Repeat_-56" data-name="&amp;lt;Grid Repeat&amp;gt;">
        <g>
          <path class="cls-1" d="M1052.04,938.53h0c0,1.29,1.04,2.33,2.33,2.33h23.65c1.29,0,2.33,1.04,2.33,2.33v22.72c0,1.29-1.04,2.33-2.33,2.33h-29.19c-1.29,0-2.33-1.04-2.33-2.33v-22.72c0-1.29-1.04-2.33-2.33-2.33h0c-1.29,0-2.33,1.04-2.33,2.33v22.72c0,1.29-1.04,2.33-2.33,2.33h-24.54c-1.29,0-2.33-1.04-2.33-2.33v-66.38c0-1.29,1.04-2.33,2.33-2.33h53.75l11.64,11.64v25.03c0,1.29-1.04,2.33-2.33,2.33h-23.65c-1.29,0-2.33,1.04-2.33,2.33Z"/>
          <rect class="cls-2" x="1036.64" y="996.79" width="19.72" height="19.72" transform="translate(-405.3 1034.83) rotate(-45)"/>
        </g>
      </g>
      <g id="_Grid_Repeat_-57" data-name="&amp;lt;Grid Repeat&amp;gt;">
        <g>
          <path class="cls-1" d="M39.41,1088.06h0c0,1.29,1.04,2.33,2.33,2.33h23.65c1.29,0,2.33,1.04,2.33,2.33v22.72c0,1.29-1.04,2.33-2.33,2.33h-29.19c-1.29,0-2.33-1.04-2.33-2.33v-22.72c0-1.29-1.04-2.33-2.33-2.33h0c-1.29,0-2.33,1.04-2.33,2.33v22.72c0,1.29-1.04,2.33-2.33,2.33H2.33C1.04,1117.77,0,1116.73,0,1115.44v-66.38c0-1.29,1.04-2.33,2.33-2.33h53.75l11.64,11.64v25.03c0,1.29-1.04,2.33-2.33,2.33h-23.65c-1.29,0-2.33,1.04-2.33,2.33Z"/>
          <rect class="cls-2" x="96.39" y="1072.39" width="19.72" height="19.72" transform="translate(-734.15 392.11) rotate(-45)"/>
        </g>
      </g>
      <g id="_Grid_Repeat_-58" data-name="&amp;lt;Grid Repeat&amp;gt;">
        <g>
          <path class="cls-1" d="M184.07,1088.06h0c0,1.29,1.04,2.33,2.33,2.33h23.65c1.29,0,2.33,1.04,2.33,2.33v22.72c0,1.29-1.04,2.33-2.33,2.33h-29.19c-1.29,0-2.33-1.04-2.33-2.33v-22.72c0-1.29-1.04-2.33-2.33-2.33h0c-1.29,0-2.33,1.04-2.33,2.33v22.72c0,1.29-1.04,2.33-2.33,2.33h-24.54c-1.29,0-2.33-1.04-2.33-2.33v-66.38c0-1.29,1.04-2.33,2.33-2.33h53.75l11.64,11.64v25.03c0,1.29-1.04,2.33-2.33,2.33h-23.65c-1.29,0-2.33,1.04-2.33,2.33Z"/>
          <rect class="cls-2" x="241.05" y="1072.39" width="19.72" height="19.72" transform="translate(-691.78 494.4) rotate(-45)"/>
        </g>
      </g>
      <g id="_Grid_Repeat_-59" data-name="&amp;lt;Grid Repeat&amp;gt;">
        <g>
          <path class="cls-1" d="M328.73,1088.06h0c0,1.29,1.04,2.33,2.33,2.33h23.65c1.29,0,2.33,1.04,2.33,2.33v22.72c0,1.29-1.04,2.33-2.33,2.33h-29.19c-1.29,0-2.33-1.04-2.33-2.33v-22.72c0-1.29-1.04-2.33-2.33-2.33h0c-1.29,0-2.33,1.04-2.33,2.33v22.72c0,1.29-1.04,2.33-2.33,2.33h-24.54c-1.29,0-2.33-1.04-2.33-2.33v-66.38c0-1.29,1.04-2.33,2.33-2.33h53.75l11.64,11.64v25.03c0,1.29-1.04,2.33-2.33,2.33h-23.65c-1.29,0-2.33,1.04-2.33,2.33Z"/>
          <rect class="cls-2" x="385.71" y="1072.39" width="19.72" height="19.72" transform="translate(-649.41 596.69) rotate(-45)"/>
        </g>
      </g>
      <g id="_Grid_Repeat_-60" data-name="&amp;lt;Grid Repeat&amp;gt;">
        <g>
          <path class="cls-1" d="M473.4,1088.06h0c0,1.29,1.04,2.33,2.33,2.33h23.65c1.29,0,2.33,1.04,2.33,2.33v22.72c0,1.29-1.04,2.33-2.33,2.33h-29.19c-1.29,0-2.33-1.04-2.33-2.33v-22.72c0-1.29-1.04-2.33-2.33-2.33h0c-1.29,0-2.33,1.04-2.33,2.33v22.72c0,1.29-1.04,2.33-2.33,2.33h-24.54c-1.29,0-2.33-1.04-2.33-2.33v-66.38c0-1.29,1.04-2.33,2.33-2.33h53.75l11.64,11.64v25.03c0,1.29-1.04,2.33-2.33,2.33h-23.65c-1.29,0-2.33,1.04-2.33,2.33Z"/>
          <rect class="cls-2" x="530.38" y="1072.39" width="19.72" height="19.72" transform="translate(-607.03 698.99) rotate(-45)"/>
        </g>
      </g>
      <g id="_Grid_Repeat_-61" data-name="&amp;lt;Grid Repeat&amp;gt;">
        <g>
          <path class="cls-1" d="M618.06,1088.06h0c0,1.29,1.04,2.33,2.33,2.33h23.65c1.29,0,2.33,1.04,2.33,2.33v22.72c0,1.29-1.04,2.33-2.33,2.33h-29.19c-1.29,0-2.33-1.04-2.33-2.33v-22.72c0-1.29-1.04-2.33-2.33-2.33h0c-1.29,0-2.33,1.04-2.33,2.33v22.72c0,1.29-1.04,2.33-2.33,2.33h-24.54c-1.29,0-2.33-1.04-2.33-2.33v-66.38c0-1.29,1.04-2.33,2.33-2.33h53.75l11.64,11.64v25.03c0,1.29-1.04,2.33-2.33,2.33h-23.65c-1.29,0-2.33,1.04-2.33,2.33Z"/>
          <rect class="cls-2" x="675.04" y="1072.39" width="19.72" height="19.72" transform="translate(-564.66 801.28) rotate(-45)"/>
        </g>
      </g>
      <g id="_Grid_Repeat_-62" data-name="&amp;lt;Grid Repeat&amp;gt;">
        <g>
          <path class="cls-1" d="M762.72,1088.06h0c0,1.29,1.04,2.33,2.33,2.33h23.65c1.29,0,2.33,1.04,2.33,2.33v22.72c0,1.29-1.04,2.33-2.33,2.33h-29.19c-1.29,0-2.33-1.04-2.33-2.33v-22.72c0-1.29-1.04-2.33-2.33-2.33h0c-1.29,0-2.33,1.04-2.33,2.33v22.72c0,1.29-1.04,2.33-2.33,2.33h-24.54c-1.29,0-2.33-1.04-2.33-2.33v-66.38c0-1.29,1.04-2.33,2.33-2.33h53.75l11.64,11.64v25.03c0,1.29-1.04,2.33-2.33,2.33h-23.65c-1.29,0-2.33,1.04-2.33,2.33Z"/>
          <rect class="cls-2" x="819.7" y="1072.39" width="19.72" height="19.72" transform="translate(-522.29 903.57) rotate(-45)"/>
        </g>
      </g>
      <g id="_Grid_Repeat_-63" data-name="&amp;lt;Grid Repeat&amp;gt;">
        <g>
          <path class="cls-1" d="M907.38,1088.06h0c0,1.29,1.04,2.33,2.33,2.33h23.65c1.29,0,2.33,1.04,2.33,2.33v22.72c0,1.29-1.04,2.33-2.33,2.33h-29.19c-1.29,0-2.33-1.04-2.33-2.33v-22.72c0-1.29-1.04-2.33-2.33-2.33h0c-1.29,0-2.33,1.04-2.33,2.33v22.72c0,1.29-1.04,2.33-2.33,2.33h-24.54c-1.29,0-2.33-1.04-2.33-2.33v-66.38c0-1.29,1.04-2.33,2.33-2.33h53.75l11.64,11.64v25.03c0,1.29-1.04,2.33-2.33,2.33h-23.65c-1.29,0-2.33,1.04-2.33,2.33Z"/>
          <rect class="cls-2" x="964.36" y="1072.39" width="19.72" height="19.72" transform="translate(-479.92 1005.86) rotate(-45)"/>
        </g>
      </g>
      <g id="_Grid_Repeat_-64" data-name="&amp;lt;Grid Repeat&amp;gt;">
        <path class="cls-1" d="M1052.04,1088.06h0c0,1.29,1.04,2.33,2.33,2.33h23.65c1.29,0,2.33,1.04,2.33,2.33v22.72c0,1.29-1.04,2.33-2.33,2.33h-29.19c-1.29,0-2.33-1.04-2.33-2.33v-22.72c0-1.29-1.04-2.33-2.33-2.33h0c-1.29,0-2.33,1.04-2.33,2.33v22.72c0,1.29-1.04,2.33-2.33,2.33h-24.54c-1.29,0-2.33-1.04-2.33-2.33v-66.38c0-1.29,1.04-2.33,2.33-2.33h53.75l11.64,11.64v25.03c0,1.29-1.04,2.33-2.33,2.33h-23.65c-1.29,0-2.33,1.04-2.33,2.33Z"/>
      </g>
    </g>
  </g>
</svg>