<?xml version="1.0" encoding="UTF-8"?>
<svg id="Layer_2" data-name="Layer 2" xmlns="http://www.w3.org/2000/svg" viewBox="0 0 428.94 428.92">
  <defs>
    <style>
      .cls-1 {
        fill: #dbe64c;
      }
    </style>
  </defs>
  <g id="Layer_1" data-name="Layer 1">
    <path class="cls-1" d="M247.94,249.54h0c0,7.77,6.3,14.08,14.08,14.08h152.85c7.77,0,14.08,6.3,14.08,14.08v137.15c0,7.77-6.3,14.08-14.08,14.08h-186.32c-7.77,0-14.08-6.3-14.08-14.08v-137.15c0-7.77-6.3-14.08-14.08-14.08h0c-7.77,0-14.08,6.3-14.08,14.08v137.15c0,7.77-6.3,14.08-14.08,14.08H14.08c-7.77,0-14.08-6.3-14.08-14.08V14.08C0,6.3,6.3,0,14.08,0h344.58c27.45,27.45,42.83,42.83,70.28,70.28v151.11c0,7.77-6.3,14.08-14.08,14.08h-152.85c-7.77,0-14.08,6.3-14.08,14.08Z"/>
  </g>
</svg>