<?xml version="1.0" encoding="UTF-8"?>
<svg id="Layer_3" data-name="Layer 3" xmlns="http://www.w3.org/2000/svg" viewBox="0 0 587.95 185.25">
  <defs>
    <style>
      .cls-1 {
        fill: #001f3e;
      }

      .cls-2 {
        fill: #dbe64c;
      }
    </style>
  </defs>
  <g id="Layer_1" data-name="Layer 1">
    <g>
      <g>
        <g>
          <polygon class="cls-1" points="317.27 49.73 304.22 37.3 291.78 49.73 304.22 62.16 317.27 49.73"/>
          <path class="cls-1" d="M488.22,84.23c-3.73-1.86-8.7-2.8-14.92-2.8h-113.76c2.49-4.56,6.11-8.08,10.88-10.57,4.76-2.49,10.04-4.35,15.85-5.6,5.8-1.24,11.6-1.96,17.41-2.18,5.8-.2,10.98-.31,15.54-.31l14.3-31.08-4.35-3.11c-3.73,5.39-8.29,9.12-13.68,11.19-5.39,2.08-11.09,3.63-17.09,4.66-6.02,1.04-12.13,2.08-18.34,3.11-6.22,1.04-11.71,3.32-16.48,6.84-4.77,3.53-8.81,8.7-12.12,15.54-3.32,6.84-5.19,16.69-5.59,29.53h131.16c6.62,0,9.95,3.11,9.95,9.32v1.86h-164.74l-8.08-34.81h-3.73l-8.08,23.62,12.43,27.9-60.3,52.29v5.6h54.7l10.8-46.21,10.34,23.21h147.95c1.24-2.49,2.69-6.84,4.35-13.06,1.65-6.22,3.31-12.64,4.97-19.27,1.65-6.62,3.11-13.06,4.35-19.27,1.24-6.22,1.86-10.57,1.86-13.05,0-7.04-1.86-11.5-5.59-13.37Z"/>
          <path class="cls-1" d="M531.05,94.49c0-16.57,3.11-32.95,9.32-49.11-3.73-4.97-6.74-10.46-9.01-16.47-2.28-6-3.42-12.12-3.42-18.34v-4.04c0-1.45.2-2.8.62-4.04l-4.35-2.49c-.41,2.49-1.35,5.5-2.79,9.01-1.46,3.53-2.9,7.15-4.35,10.88-1.45,3.73-2.7,7.26-3.73,10.57-1.04,3.32-1.55,6.01-1.55,8.08v123.71h4.35l16.16-31.08c0-6.22-.22-12.33-.62-18.34-.42-6-.62-12.12-.62-18.34Z"/>
          <polygon class="cls-1" points="581.11 75.84 577.38 75.84 568.68 102.57 580.97 124.79 517.7 179.65 517.7 185.25 572.41 185.25 587.95 118.73 581.11 75.84"/>
        </g>
        <g>
          <path class="cls-1" d="M220.01,84.37h2.43l4.52,6.69h18.62l1.79-4.64h10.11l1.79,4.64h9.27l-11.63-26.6h-8.82l-11.6,26.54-5.54-8.14c3.19-1.63,5.02-4.52,5.02-8.36,0-6.16-4.71-10.03-12.12-10.03h-12.81v26.6h8.97v-6.69ZM252.42,73.27l2.58,6.69h-5.17l2.58-6.69ZM220.01,71.37h3.27c2.47,0,3.65,1.18,3.65,3.12s-1.18,3.12-3.65,3.12h-3.27v-6.23Z"/>
          <g>
            <polygon class="cls-1" points="238.36 96.12 228.6 96.12 219.85 105.77 219.85 96.12 211.04 96.12 211.04 122.72 219.85 122.72 219.85 116.14 221.87 113.9 228.52 122.72 238.9 122.72 227.72 107.82 238.36 96.12"/>
            <rect class="cls-1" x="240.11" y="96.12" width="8.97" height="26.6"/>
            <polygon class="cls-1" points="264.13 115.76 276.29 101.63 276.29 96.12 252.84 96.12 252.84 103.07 264.62 103.07 252.46 117.21 252.46 122.72 276.9 122.72 276.9 115.76 264.13 115.76"/>
          </g>
          <path class="cls-1" d="M276.92,60.84c-3.21,0-5.66,2.49-5.66,5.64s2.45,5.64,5.63,5.64,5.66-2.49,5.66-5.68-2.41-5.61-5.63-5.61ZM280.08,69.25l-1.1-1.71c.62-.37.96-.98.96-1.82,0-1.36-1.04-2.24-2.83-2.24h-2.86v6.01h2.3v-1.54h.37l.99,1.54h1.95c-.74.77-1.77,1.23-2.97,1.23-2.4,0-4.13-1.84-4.13-4.24s1.73-4.24,4.16-4.24,4.13,1.79,4.13,4.21c0,1.09-.35,2.05-.96,2.8ZM277.64,65.72c0,.4-.24.66-.67.66h-.42v-1.31h.42c.43,0,.67.26.67.66Z"/>
        </g>
      </g>
      <path class="cls-2" d="M107.08,107.78h0c0,3.36,2.72,6.08,6.08,6.08h66.02c3.36,0,6.08,2.72,6.08,6.08v59.24c0,3.36-2.72,6.08-6.08,6.08h-80.47c-3.36,0-6.08-2.72-6.08-6.08v-59.24c0-3.36-2.72-6.08-6.08-6.08h0c-3.36,0-6.08,2.72-6.08,6.08v59.24c0,3.36-2.72,6.08-6.08,6.08H6.08c-3.36,0-6.08-2.72-6.08-6.08V6.08C0,2.72,2.72,0,6.08,0h148.82c11.85,11.85,18.5,18.5,30.35,30.35v65.26c0,3.36-2.72,6.08-6.08,6.08h-66.02c-3.36,0-6.08,2.72-6.08,6.08Z"/>
    </g>
  </g>
</svg>